<svg width="20" height="20" viewBox="0 0 20 20" fill="none" xmlns="http://www.w3.org/2000/svg">
<path d="M15.625 2.5C15.4592 2.5 15.3003 2.56585 15.1831 2.68306C15.0658 2.80027 15 2.95924 15 3.125V8.4543L5.90742 3.01211C5.69741 2.88436 5.45694 2.81537 5.21114 2.81235C4.96534 2.80932 4.72325 2.87238 4.51016 2.99492C4.04141 3.26055 3.75 3.77461 3.75 4.33594V15.6641C3.75 16.2254 4.04141 16.7395 4.51016 17.0051C4.7233 17.1275 4.96541 17.1905 5.21119 17.1874C5.45698 17.1843 5.69743 17.1153 5.90742 16.9875L15 11.5457V16.875C15 17.0408 15.0658 17.1997 15.1831 17.3169C15.3003 17.4342 15.4592 17.5 15.625 17.5C15.7908 17.5 15.9497 17.4342 16.0669 17.3169C16.1842 17.1997 16.25 17.0408 16.25 16.875V3.125C16.25 2.95924 16.1842 2.80027 16.0669 2.68306C15.9497 2.56585 15.7908 2.5 15.625 2.5Z" fill="white"/>
</svg>
