<svg width="20" height="20" viewBox="0 0 20 20" fill="none" xmlns="http://www.w3.org/2000/svg">
<path d="M4.375 2.5C4.54076 2.5 4.69973 2.56585 4.81694 2.68306C4.93415 2.80027 5 2.95924 5 3.125V8.4543L14.0926 3.01211C14.3026 2.88436 14.5431 2.81537 14.7889 2.81235C15.0347 2.80932 15.2768 2.87238 15.4898 2.99492C15.9586 3.26055 16.25 3.77461 16.25 4.33594V15.6641C16.25 16.2254 15.9586 16.7395 15.4898 17.0051C15.2767 17.1275 15.0346 17.1905 14.7888 17.1874C14.543 17.1843 14.3026 17.1153 14.0926 16.9875L5 11.5457V16.875C5 17.0408 4.93415 17.1997 4.81694 17.3169C4.69973 17.4342 4.54076 17.5 4.375 17.5C4.20924 17.5 4.05027 17.4342 3.93306 17.3169C3.81585 17.1997 3.75 17.0408 3.75 16.875V3.125C3.75 2.95924 3.81585 2.80027 3.93306 2.68306C4.05027 2.56585 4.20924 2.5 4.375 2.5Z" fill="white"/>
</svg>
