<svg width="20" height="23" viewBox="0 0 20 23" fill="none" xmlns="http://www.w3.org/2000/svg">
<path d="M0.240479 11.3522C0.240479 12.4699 0.665158 13.4359 1.51452 14.2502C2.36388 15.0645 3.3815 15.4716 4.5674 15.4716H6.63471C7.08343 15.4716 7.41997 15.6313 7.64432 15.9506L9.71163 19.112C10.2886 20.07 11.202 20.549 12.452 20.549H14.5193C15.0962 20.549 15.6011 20.3494 16.0337 19.9502C16.4664 19.5511 16.6828 19.0801 16.6828 18.5372V2.15547C16.6828 1.6126 16.4745 1.14159 16.0578 0.742424C15.6411 0.343259 15.1283 0.143677 14.5193 0.143677H12.452C11.202 0.143677 10.2886 0.622675 9.71163 1.58067L7.64432 4.74206C7.41997 5.06139 7.08343 5.22105 6.63471 5.22105H4.5674C3.3815 5.22105 2.36388 5.6282 1.51452 6.4425C0.665158 7.25679 0.240479 8.22277 0.240479 9.34044V11.3522ZM2.30779 9.34044C2.30779 8.76564 2.52413 8.27866 2.95682 7.87949C3.38952 7.48033 3.92638 7.28074 4.5674 7.28074H6.63471C7.78856 7.28074 8.70202 6.80175 9.37509 5.84375L11.4424 2.68237C11.6668 2.3311 12.0033 2.15547 12.452 2.15547H14.6155V18.5372H12.452C12.0033 18.5372 11.6668 18.3616 11.4424 18.0103L9.37509 14.8489C8.86227 13.8909 7.94881 13.4119 6.63471 13.4119H4.5674C3.92638 13.4119 3.38952 13.2123 2.95682 12.8132C2.52413 12.414 2.30779 11.927 2.30779 11.3522V9.34044ZM17.6924 7.28074V13.4119C17.6924 14.0825 18.0289 14.4178 18.702 14.4178C19.4071 14.4178 19.7597 14.0825 19.7597 13.4119V7.28074C19.7597 6.61015 19.4071 6.27485 18.702 6.27485C18.0289 6.27485 17.6924 6.61015 17.6924 7.28074Z" fill="white"/>
</svg>
