<svg width="60" height="35" viewBox="0 0 60 35" fill="none" xmlns="http://www.w3.org/2000/svg">
<path d="M59.4005 3.607L56.3947 0.601413C55.9942 0.20005 55.5328 0 55.0112 0C54.4908 0 54.0297 0.20005 53.6292 0.601413L30.0003 24.229L6.37253 0.602045C5.9718 0.200682 5.51064 0.000631389 4.98966 0.000631389C4.46848 0.000631389 4.00731 0.200682 3.60679 0.602045L0.601413 3.60785C0.20005 4.00837 0 4.46953 0 4.99072C0 5.51148 0.200682 5.97265 0.601413 6.37317L28.6174 34.3898C29.018 34.7906 29.4793 34.9908 30.0003 34.9908C30.5213 34.9908 30.9818 34.7906 31.3821 34.3898L59.4005 6.37317C59.801 5.97244 60 5.51127 60 4.99072C60 4.46953 59.801 4.00837 59.4005 3.607Z" fill="currentColor"/>
</svg>
