<svg width="60" height="60" viewBox="0 0 60 60" fill="none" xmlns="http://www.w3.org/2000/svg">
<g clip-path="url(#clip0_63_31)">
<path d="M51.2132 8.78675C45.5871 3.16067 37.9564 -2.19768e-05 29.9999 1.14607e-10C22.0434 2.1977e-05 14.4128 3.16075 8.78675 8.78686C3.16067 14.413 -2.19768e-05 22.0436 1.14607e-10 30.0001C2.1977e-05 37.9566 3.16075 45.5872 8.78686 51.2133C14.413 56.8394 22.0436 60.0001 30.0001 60.0001C37.9566 60 45.5872 56.8393 51.2133 51.2132C56.8394 45.5871 60.0001 37.9564 60.0001 29.9999C60 22.0434 56.8393 14.4128 51.2132 8.78675ZM48.5616 48.5617C43.6349 53.4773 36.9596 56.2379 30 56.2379C23.0405 56.2379 16.3652 53.4773 11.4385 48.5617C1.20366 38.3268 1.20366 21.6733 11.4385 11.4383C21.6733 1.20343 38.3267 1.20366 48.5616 11.4383C58.7965 21.673 58.7964 38.3268 48.5616 48.5617ZM42.5952 20.0563L32.6516 30L42.2851 39.6335C42.461 39.8073 42.6008 40.014 42.6964 40.242C42.792 40.4699 42.8416 40.7145 42.8424 40.9617C42.8431 41.2089 42.795 41.4538 42.7008 41.6823C42.6065 41.9108 42.468 42.1184 42.2932 42.2932C42.1184 42.468 41.9108 42.6065 41.6823 42.7008C41.4538 42.795 41.2089 42.8431 40.9617 42.8424C40.7145 42.8416 40.4699 42.792 40.242 42.6964C40.014 42.6008 39.8073 42.461 39.6335 42.2851L30 32.6516L20.0563 42.5952C19.7034 42.9404 19.2286 43.1324 18.7349 43.1296C18.2413 43.1269 17.7686 42.9295 17.4196 42.5805C17.0705 42.2314 16.8732 41.7588 16.8704 41.2651C16.8677 40.7715 17.0597 40.2967 17.4048 39.9437L27.3484 30L17.7149 20.3665C17.3668 20.0142 17.1723 19.5384 17.1738 19.0431C17.1753 18.5478 17.3727 18.0732 17.7229 17.7229C18.0732 17.3727 18.5478 17.1753 19.0431 17.1738C19.5384 17.1723 20.0142 17.3668 20.3665 17.7149L30 27.3484L39.9437 17.4048C40.2967 17.0597 40.7715 16.8677 41.2651 16.8704C41.7588 16.8732 42.2314 17.0705 42.5805 17.4196C42.9295 17.7686 43.1269 18.2413 43.1296 18.7349C43.1324 19.2286 42.9404 19.7034 42.5952 20.0563Z" fill="currentColor"/>
</g>
<defs>
<clipPath id="clip0_63_31">
<rect width="60" height="60" fill="white"/>
</clipPath>
</defs>
</svg>
