<svg width="25" height="25" viewBox="0 0 25 25" fill="none" xmlns="http://www.w3.org/2000/svg">
<path fill-rule="evenodd" clip-rule="evenodd" d="M19.5262 5.47372C18.823 4.77071 17.8693 4.37577 16.875 4.37577C15.8806 4.37577 14.927 4.77071 14.2237 5.47372L5.47372 14.2237C4.79046 14.9308 4.41226 15.878 4.42057 16.8612C4.42888 17.8445 4.82304 18.7851 5.51816 19.4806C6.21328 20.176 7.15373 20.5706 8.13697 20.5794C9.12021 20.5882 10.0676 20.2104 10.775 19.5275H10.7762L11.3975 18.9025C11.5737 18.731 11.8102 18.6357 12.0561 18.637C12.302 18.6382 12.5375 18.7361 12.7119 18.9093C12.8864 19.0826 12.9857 19.3175 12.9886 19.5634C12.9915 19.8092 12.8978 20.0464 12.7275 20.2237L12.105 20.85L12.1025 20.8525C11.0476 21.9074 9.61683 22.5 8.12497 22.5C6.63312 22.5 5.20237 21.9074 4.14747 20.8525C3.09257 19.7976 2.49994 18.3668 2.49994 16.875C2.49994 15.3831 3.09257 13.9524 4.14747 12.8975L12.8975 4.14747C13.9517 3.09191 15.3821 2.49838 16.8739 2.49744C18.3658 2.4965 19.7969 3.08824 20.8525 4.14247C21.908 5.19671 22.5016 6.62708 22.5025 8.11894C22.5034 9.61079 21.9117 11.0419 20.8575 12.0975L16.5387 16.5387C16.2372 16.8567 15.875 17.1111 15.4735 17.2868C15.0721 17.4626 14.6395 17.5561 14.2013 17.562C13.7631 17.5678 13.3282 17.4858 12.9222 17.3207C12.5162 17.1557 12.1474 16.9111 11.8375 16.6012C11.5276 16.2913 11.283 15.9225 11.1179 15.5165C10.9529 15.1105 10.8709 14.6756 10.8767 14.2374C10.8826 13.7992 10.9761 13.3666 11.1518 12.9652C11.3276 12.5637 11.582 12.2015 11.9 11.9L16.2125 7.58622C16.2989 7.49664 16.4023 7.42517 16.5167 7.37599C16.631 7.3268 16.754 7.30088 16.8785 7.29974C17.003 7.2986 17.1265 7.32226 17.2417 7.36935C17.3569 7.41643 17.4616 7.48599 17.5497 7.57398C17.6378 7.66196 17.7074 7.7666 17.7546 7.88179C17.8018 7.99698 17.8256 8.12042 17.8246 8.2449C17.8236 8.36938 17.7978 8.49241 17.7487 8.60681C17.6996 8.72122 17.6282 8.8247 17.5387 8.91122L13.2262 13.225C13.0953 13.3552 12.9913 13.51 12.9202 13.6804C12.8491 13.8509 12.8123 14.0336 12.8118 14.2183C12.8114 14.403 12.8473 14.5859 12.9175 14.7567C12.9878 14.9275 13.091 15.0828 13.2212 15.2137C13.3515 15.3446 13.5062 15.4486 13.6767 15.5197C13.8471 15.5908 14.0299 15.6276 14.2146 15.6281C14.3992 15.6286 14.5822 15.5927 14.753 15.5224C14.9238 15.4522 15.0791 15.349 15.21 15.2187L19.5275 10.7775C20.2305 10.0742 20.6254 9.12059 20.6254 8.12622C20.6254 7.13186 20.2305 6.1782 19.5275 5.47497L19.5262 5.47372Z" fill="white"/>
</svg>
