<svg width="15" height="15" viewBox="0 0 15 15" fill="none" xmlns="http://www.w3.org/2000/svg">
<g clip-path="url(#clip0_175_4002)">
<path fill-rule="evenodd" clip-rule="evenodd" d="M3.33397 2.53546C3.33392 2.01547 3.49418 1.50811 3.79293 1.08251C4.09168 0.656906 4.51438 0.333762 5.00344 0.157106C5.4925 -0.019551 6.02413 -0.0411288 6.5259 0.0953124C7.02767 0.231754 7.47516 0.519578 7.80742 0.919568C8.21773 0.422136 8.80259 0.100262 9.44237 0.0197799C10.0821 -0.0607023 10.7285 0.106289 11.2492 0.4866C11.77 0.86691 12.1257 1.4318 12.2437 2.06573C12.3617 2.69966 12.2331 3.35472 11.8841 3.89694H12.4754C13.0428 3.89694 13.587 4.12235 13.9882 4.52358C14.3894 4.92481 14.6148 5.46899 14.6148 6.03641V7.5924C14.615 7.89002 14.5177 8.17951 14.3377 8.41654C14.1577 8.65358 13.905 8.8251 13.6182 8.90487C13.7303 10.3255 13.6649 11.7562 13.4237 13.1628C13.3536 13.5716 13.1526 13.9465 12.8509 14.231C12.5492 14.5156 12.1632 14.6944 11.7511 14.7406L11.0392 14.8199C8.89111 15.06 6.72296 15.06 4.57487 14.8199L3.86379 14.7406C3.45164 14.6944 3.06564 14.5156 2.76395 14.231C2.46227 13.9465 2.26122 13.5716 2.1911 13.1628C1.95 11.757 1.88467 10.3268 1.99661 8.90487C1.70987 8.8251 1.45716 8.65358 1.27718 8.41654C1.09719 8.17951 0.999827 7.89002 1 7.5924V6.03641C1 5.46899 1.22541 4.92481 1.62664 4.52358C2.02787 4.12235 2.57205 3.89694 3.13948 3.89694H3.73075C3.47072 3.49052 3.333 3.01793 3.33397 2.53546ZM7.22393 2.53546C7.22393 2.17437 7.08049 1.82807 6.82516 1.57274C6.56983 1.31741 6.22353 1.17397 5.86244 1.17397C5.50136 1.17397 5.15506 1.31741 4.89973 1.57274C4.6444 1.82807 4.50096 2.17437 4.50096 2.53546C4.50096 2.89654 4.6444 3.24284 4.89973 3.49817C5.15506 3.7535 5.50136 3.89694 5.86244 3.89694C6.22353 3.89694 6.56983 3.7535 6.82516 3.49817C7.08049 3.24284 7.22393 2.89654 7.22393 2.53546ZM9.7524 3.89694C9.93119 3.89694 10.1082 3.86172 10.2734 3.7933C10.4386 3.72488 10.5887 3.6246 10.7151 3.49817C10.8415 3.37174 10.9418 3.22166 11.0102 3.05647C11.0787 2.89129 11.1139 2.71425 11.1139 2.53546C11.1139 2.35666 11.0787 2.17962 11.0102 2.01444C10.9418 1.84926 10.8415 1.69917 10.7151 1.57274C10.5887 1.44632 10.4386 1.34603 10.2734 1.27761C10.1082 1.20919 9.93119 1.17397 9.7524 1.17397C9.39131 1.17397 9.04501 1.31741 8.78968 1.57274C8.53436 1.82807 8.39091 2.17437 8.39091 2.53546C8.39091 2.89654 8.53436 3.24284 8.78968 3.49817C9.04501 3.7535 9.39131 3.89694 9.7524 3.89694ZM2.16699 6.03641C2.16699 5.4996 2.60266 5.06393 3.13948 5.06393H7.22393V7.78689H2.36148C2.3099 7.78689 2.26043 7.7664 2.22395 7.72993C2.18748 7.69345 2.16699 7.64398 2.16699 7.5924V6.03641ZM8.39091 8.95388H12.4512C12.5602 10.292 12.501 11.6403 12.2739 12.9652C12.2465 13.1247 12.1681 13.271 12.0503 13.382C11.9326 13.493 11.782 13.5627 11.6211 13.5806L10.91 13.6607C10.0729 13.7541 9.23192 13.8093 8.39091 13.8272V8.95388ZM8.39091 7.78689H13.2534C13.3049 7.78689 13.3544 7.7664 13.3909 7.72993C13.4274 7.69345 13.4479 7.64398 13.4479 7.5924V6.03641C13.4479 5.4996 13.0122 5.06393 12.4754 5.06393H8.39091V7.78689ZM7.22393 8.95388V13.8272C6.38214 13.8097 5.54157 13.7542 4.70479 13.6607L3.99371 13.5806C3.833 13.5627 3.68245 13.4931 3.56473 13.3823C3.44701 13.2714 3.36848 13.1253 3.34098 12.966C3.11396 11.6413 3.05436 10.2934 3.16359 8.95388H7.22393Z" fill="white"/>
</g>
<defs>
<clipPath id="clip0_175_4002">
<rect width="15" height="15" fill="white"/>
</clipPath>
</defs>
</svg>
