<svg width="0" height="0"><symbol xmlns="http://www.w3.org/2000/svg" xml:space="preserve" id="arrow" viewBox="0 0 284.929 284.929"><g><path d="m282.082 76.511-14.274-14.273c-1.902-1.906-4.093-2.856-6.57-2.856-2.471 0-4.661.95-6.563 2.856L142.466 174.441 30.262 62.241c-1.903-1.906-4.093-2.856-6.567-2.856-2.475 0-4.665.95-6.567 2.856L2.856 76.515C.95 78.417 0 80.607 0 83.082c0 2.473.953 4.663 2.856 6.565l133.043 133.046c1.902 1.903 4.093 2.854 6.567 2.854s4.661-.951 6.562-2.854L282.082 89.647c1.902-1.903 2.847-4.093 2.847-6.565 0-2.475-.945-4.665-2.847-6.571z"/></g></symbol><symbol xmlns="http://www.w3.org/2000/svg" id="check" fill="none" viewBox="0 0 360 258"><path fill="currentColor" fill-rule="evenodd" d="M316.037 8.085c10.087-9.887 26.271-9.76 36.203.283 9.901 10.074 9.799 26.256-.231 36.203L144.412 249.834a25.657 25.657 0 0 1-17.96 7.414h-.282a25.668 25.668 0 0 1-9.881-2.022 25.668 25.668 0 0 1-8.337-5.675L7.655 145.611l-.132-.136c-9.81-10.225-9.475-26.467.75-36.278s26.467-9.475 36.278.75l82.259 85.158L316.037 8.085Z" clip-rule="evenodd"/></symbol><symbol xmlns="http://www.w3.org/2000/svg" id="cross" fill="none" viewBox="0 0 60 60"><g clip-path="url(#a)"><path fill="currentColor" d="M51.213 8.787A30 30 0 1 0 8.787 51.214 30 30 0 0 0 51.213 8.787Zm-2.651 39.775a26.28 26.28 0 0 1-37.123 0c-10.235-10.235-10.235-26.889 0-37.124 10.234-10.235 26.888-10.234 37.123 0 10.235 10.235 10.234 26.889 0 37.124Zm-5.967-28.506L32.652 30l9.633 9.633a1.874 1.874 0 1 1-2.651 2.652L30 32.652l-9.944 9.943a1.874 1.874 0 0 1-2.651-2.651L27.348 30l-9.633-9.634a1.875 1.875 0 0 1 2.651-2.651L30 27.348l9.944-9.943a1.876 1.876 0 0 1 2.651 2.651Z"/></g><defs><clipPath id="a"><path fill="#fff" d="M0 0h60v60H0z"/></clipPath></defs></symbol></svg>