<svg width="0" height="0"><symbol xmlns="http://www.w3.org/2000/svg" id="arrow" fill="none" viewBox="0 0 60 35"><path fill="currentColor" d="M59.4 3.607 56.395.601c-.4-.4-.862-.601-1.384-.601-.52 0-.981.2-1.382.601L30 24.23 6.373.602C5.972.201 5.51.001 4.99.001c-.522 0-.983.2-1.383.601L.6 3.608c-.399.4-.6.862-.6 1.382 0 .52.2.982.601 1.382L28.617 34.39c.401.4.862.6 1.383.6s.982-.2 1.382-.6L59.4 6.373c.401-.4.6-.862.6-1.382 0-.521-.199-.983-.6-1.384Z"/></symbol><symbol xmlns="http://www.w3.org/2000/svg" id="check" fill="none" viewBox="0 0 360 258"><path fill="currentColor" fill-rule="evenodd" d="M316.037 8.085c10.087-9.887 26.271-9.76 36.203.283 9.901 10.074 9.799 26.256-.231 36.203L144.412 249.834a25.657 25.657 0 0 1-17.96 7.414h-.282a25.668 25.668 0 0 1-9.881-2.022 25.668 25.668 0 0 1-8.337-5.675L7.655 145.611l-.132-.136c-9.81-10.225-9.475-26.467.75-36.278s26.467-9.475 36.278.75l82.259 85.158L316.037 8.085Z" clip-rule="evenodd"/></symbol><symbol xmlns="http://www.w3.org/2000/svg" id="cross" fill="none" viewBox="0 0 60 60"><g clip-path="url(#a)"><path fill="currentColor" d="M51.213 8.787A30 30 0 1 0 8.787 51.214 30 30 0 0 0 51.213 8.787Zm-2.651 39.775a26.28 26.28 0 0 1-37.123 0c-10.235-10.235-10.235-26.889 0-37.124 10.234-10.235 26.888-10.234 37.123 0 10.235 10.235 10.234 26.889 0 37.124Zm-5.967-28.506L32.652 30l9.633 9.633a1.874 1.874 0 1 1-2.651 2.652L30 32.652l-9.944 9.943a1.874 1.874 0 0 1-2.651-2.651L27.348 30l-9.633-9.634a1.875 1.875 0 0 1 2.651-2.651L30 27.348l9.944-9.943a1.876 1.876 0 0 1 2.651 2.651Z"/></g><defs><clipPath id="a"><path fill="currentColor" d="M0 0h60v60H0z"/></clipPath></defs></symbol></svg>