<svg width="0" height="0"><symbol xmlns="http://www.w3.org/2000/svg" id="next" fill="none" viewBox="0 0 20 20"><path fill="currentColor" d="M15.625 2.5a.625.625 0 0 0-.625.625v5.33L5.907 3.011a1.372 1.372 0 0 0-1.397-.017c-.469.266-.76.78-.76 1.34v11.33c0 .56.291 1.075.76 1.34a1.373 1.373 0 0 0 1.397-.017L15 11.546v5.329a.624.624 0 1 0 1.25 0V3.125a.625.625 0 0 0-.625-.625Z"/></symbol><symbol xmlns="http://www.w3.org/2000/svg" id="pause" fill="none" viewBox="0 0 15 19"><rect width="4" height="18" y=".5" fill="currentColor" rx="2"/><rect width="4" height="18" x="11" y=".5" fill="currentColor" rx="2"/></symbol><symbol xmlns="http://www.w3.org/2000/svg" id="play" fill="currentColor" viewBox="0 0 24 24"><path d="M18.5 11.13a1 1 0 0 1 0 1.74l-9 5.2A1 1 0 0 1 8 17.2V6.8a1 1 0 0 1 1.5-.86l9 5.2Z"/></symbol><symbol xmlns="http://www.w3.org/2000/svg" id="prev" fill="none" viewBox="0 0 20 20"><path fill="currentColor" d="M4.375 2.5A.625.625 0 0 1 5 3.125v5.33l9.093-5.443a1.372 1.372 0 0 1 1.397-.017c.469.266.76.78.76 1.34v11.33c0 .56-.291 1.075-.76 1.34a1.373 1.373 0 0 1-1.397-.017L5 11.546v5.329a.625.625 0 1 1-1.25 0V3.125a.625.625 0 0 1 .625-.625Z"/></symbol><symbol xmlns="http://www.w3.org/2000/svg" id="volume" fill="none" viewBox="0 0 20 23"><path fill="currentColor" d="M.24 11.352c0 1.118.425 2.084 1.275 2.898.849.815 1.867 1.222 3.052 1.222h2.068c.448 0 .785.16 1.01.479l2.067 3.161c.577.958 1.49 1.437 2.74 1.437h2.067c.577 0 1.082-.2 1.515-.599.432-.399.649-.87.649-1.413V2.155c0-.542-.209-1.013-.625-1.413-.417-.399-.93-.598-1.539-.598h-2.067c-1.25 0-2.163.479-2.74 1.437L7.644 4.742c-.224.32-.56.479-1.01.479H4.568c-1.186 0-2.203.407-3.052 1.221C.665 7.258.24 8.223.24 9.34v2.012ZM2.308 9.34c0-.574.216-1.061.649-1.46.433-.4.97-.6 1.61-.6h2.068c1.154 0 2.067-.478 2.74-1.436l2.067-3.162c.225-.35.561-.527 1.01-.527h2.164v16.382h-2.164c-.449 0-.785-.175-1.01-.527l-2.067-3.16c-.513-.958-1.426-1.437-2.74-1.437H4.567c-.64 0-1.177-.2-1.61-.599a1.913 1.913 0 0 1-.65-1.46V9.34Zm15.384-2.06v6.132c0 .67.337 1.006 1.01 1.006.705 0 1.058-.335 1.058-1.006V7.28c0-.67-.353-1.006-1.058-1.006-.673 0-1.01.335-1.01 1.006Z"/></symbol></svg>