<svg width="0" height="0"><symbol xmlns="http://www.w3.org/2000/svg" id="account" fill="none" viewBox="0 0 20 20"><path fill="currentColor" fill-rule="evenodd" d="M5.84 15.63a6.97 6.97 0 0 0 8.32 0 8.2 8.2 0 0 0-8.32 0zM4.7 14.57a7 7 0 1 1 10.6 0 9.7 9.7 0 0 0-10.6 0zM10 1.5a8.5 8.5 0 1 0 0 17 8.5 8.5 0 0 0 0-17zm-1.5 7a1.5 1.5 0 1 0 3 0 1.5 1.5 0 0 0-3 0zm1.5-3a3 3 0 1 0 0 6 3 3 0 0 0 0-6z" clip-rule="evenodd"/></symbol><symbol xmlns="http://www.w3.org/2000/svg" id="bell" fill="none" viewBox="0 0 25 25"><path fill="currentColor" d="M21.323 17.383c-.563-.977-1.401-3.698-1.401-7.227a7.422 7.422 0 1 0-14.844 0c0 3.529-.839 6.25-1.402 7.222a1.172 1.172 0 0 0 1.011 1.763h4.32a3.515 3.515 0 0 0 6.986 0h4.32a1.172 1.172 0 0 0 1.01-1.758ZM12.5 21.484a2.735 2.735 0 0 1-2.706-2.343h5.412a2.734 2.734 0 0 1-2.706 2.343Zm8.15-3.32a.381.381 0 0 1-.337.195H4.687a.381.381 0 0 1-.336-.195.39.39 0 0 1 0-.39c.727-1.254 1.508-4.169 1.508-7.618a6.64 6.64 0 0 1 13.281 0c0 3.448.782 6.364 1.508 7.617a.392.392 0 0 1 .001.391Z"/></symbol><symbol xmlns="http://www.w3.org/2000/svg" id="delete" fill="none" viewBox="0 0 61 74"><path fill="currentColor" d="M40.276 26.81c-.958 0-1.734.776-1.734 1.734v32.754a1.733 1.733 0 0 0 3.467 0V28.542c0-.957-.776-1.732-1.733-1.732Zm-20.45 0c-.957 0-1.733.776-1.733 1.734v32.754a1.733 1.733 0 0 0 3.466 0V28.542c0-.957-.776-1.732-1.733-1.732Z"/><path fill="currentColor" d="M4.922 22.03v42.698c0 2.524.925 4.894 2.542 6.595A8.534 8.534 0 0 0 13.656 74h32.79a8.532 8.532 0 0 0 6.192-2.677c1.616-1.7 2.541-4.07 2.541-6.595V22.031a6.62 6.62 0 0 0-1.698-13.02h-8.873V6.847A6.808 6.808 0 0 0 37.745 0H22.357a6.809 6.809 0 0 0-6.864 6.846v2.166H6.621A6.621 6.621 0 0 0 4.922 22.03Zm41.523 48.504H13.656c-2.963 0-5.268-2.546-5.268-5.806V22.183h43.325v42.545c0 3.26-2.305 5.806-5.268 5.806ZM18.96 6.846a3.337 3.337 0 0 1 3.398-3.38h15.388a3.338 3.338 0 0 1 3.397 3.38v2.166H18.959V6.846ZM6.621 12.478h46.86a3.12 3.12 0 0 1 0 6.239H6.621a3.12 3.12 0 1 1 0-6.24Z"/><path fill="currentColor" d="M30.05 26.81c-.956 0-1.732.776-1.732 1.734v32.754a1.733 1.733 0 0 0 3.466 0V28.542c0-.957-.776-1.732-1.733-1.732Z"/></symbol><symbol xmlns="http://www.w3.org/2000/svg" id="exit" fill="currentColor" viewBox="0 0 20 20"><path fill-rule="evenodd" d="M8.32 2h.93a.75.75 0 1 1 0 1.5h-.9c-1 0-1.7 0-2.24.04a2.9 2.9 0 0 0-1.1.26A2.75 2.75 0 0 0 3.8 5c-.13.25-.21.57-.26 1.11-.04.55-.04 1.25-.04 2.24v3.3c0 1 0 1.7.04 2.24.05.53.13.86.26 1.1A2.75 2.75 0 0 0 5 16.2c.25.13.57.21 1.11.26.55.04 1.25.04 2.24.04h.9a.75.75 0 0 1 0 1.5h-.93c-.96 0-1.72 0-2.33-.05a4.39 4.39 0 0 1-1.67-.41 4.25 4.25 0 0 1-1.86-1.86A4.38 4.38 0 0 1 2.05 14C2 13.4 2 12.64 2 11.68V8.32c0-.96 0-1.72.05-2.33.05-.63.16-1.17.41-1.67a4.25 4.25 0 0 1 1.86-1.86c.5-.25 1.04-.36 1.67-.41C6.6 2 7.36 2 8.32 2Zm5.9 4.97a.75.75 0 0 1 1.06 0l2.5 2.5a.75.75 0 0 1 0 1.06l-2.5 2.5a.75.75 0 1 1-1.06-1.06l1.22-1.22H8.75a.75.75 0 0 1 0-1.5h6.69l-1.22-1.22a.75.75 0 0 1 0-1.06Z" clip-rule="evenodd"/></symbol><symbol xmlns="http://www.w3.org/2000/svg" id="flip" fill="none" viewBox="0 0 60 74"><path fill="currentColor" d="M40 66.667h6.667V60H40v6.667Zm13.333-40H60V20h-6.667v6.667ZM0 13.333V60c0 3.667 3 6.667 6.667 6.667H20V60H6.667V13.333H20V6.667H6.667C3 6.667 0 9.667 0 13.333Zm53.333-6.666v6.666H60c0-3.666-3-6.666-6.667-6.666ZM26.667 73.333h6.666V0h-6.666v73.333Zm26.666-20H60v-6.666h-6.667v6.666ZM40 13.333h6.667V6.667H40v6.666ZM53.333 40H60v-6.667h-6.667V40Zm0 26.667C57 66.667 60 63.667 60 60h-6.667v6.667Z"/></symbol><symbol xmlns="http://www.w3.org/2000/svg" id="friends" fill="none" viewBox="0 0 30 30"><path fill="currentColor" d="M19.687 15c-1.204 0-2.37-.538-3.28-1.514-.887-.952-1.429-2.222-1.524-3.574-.102-1.443.338-2.77 1.238-3.736.901-.967 2.16-1.489 3.566-1.489 1.397 0 2.66.531 3.557 1.496.907.974 1.348 2.298 1.246 3.728-.098 1.354-.639 2.623-1.524 3.574-.909.977-2.073 1.515-3.279 1.515Zm7.725 10.313H11.964a1.624 1.624 0 0 1-1.29-.626 1.771 1.771 0 0 1-.308-1.51c.494-1.982 1.716-3.625 3.535-4.752 1.614-1 3.669-1.55 5.786-1.55 2.16 0 4.16.527 5.784 1.526 1.823 1.121 3.047 2.774 3.538 4.779a1.773 1.773 0 0 1-.312 1.51 1.622 1.622 0 0 1-1.285.622ZM8.613 15.233c-2.062 0-3.875-1.917-4.043-4.273-.083-1.207.293-2.323 1.055-3.142.753-.81 1.816-1.256 2.988-1.256s2.227.448 2.984 1.263c.768.825 1.143 1.94 1.055 3.136-.168 2.356-1.98 4.272-4.039 4.272Zm3.848 1.843c-1.031-.504-2.369-.756-3.847-.756-1.726 0-3.403.45-4.721 1.267-1.495.928-2.5 2.278-2.906 3.909a1.605 1.605 0 0 0 .28 1.369 1.484 1.484 0 0 0 1.177.572h6.504a.469.469 0 0 0 .461-.386 1.57 1.57 0 0 1 .025-.11c.496-1.995 1.66-3.682 3.381-4.91a.47.47 0 0 0-.037-.785 4.745 4.745 0 0 0-.318-.17Z"/></symbol><symbol xmlns="http://www.w3.org/2000/svg" id="group" fill="none" viewBox="0 0 20 20"><path fill="currentColor" fill-rule="evenodd" d="M10 7.75a1.25 1.25 0 1 1 0-2.5 1.25 1.25 0 0 1 0 2.5zM7.25 6.5a2.75 2.75 0 1 1 5.5 0 2.75 2.75 0 0 1-5.5 0zm-.5 7.25c0-.42.23-.83.8-1.17A4.81 4.81 0 0 1 10 12c1.03 0 1.88.23 2.45.58.57.34.8.75.8 1.17 0 .3-.1.44-.22.54-.14.11-.4.21-.78.21h-4.5c-.39 0-.64-.1-.78-.21-.12-.1-.22-.25-.22-.54zM10 10.5c-1.22 0-2.37.27-3.23.8-.88.53-1.52 1.37-1.52 2.45 0 .7.28 1.3.78 1.71.48.39 1.1.54 1.72.54h4.5c.61 0 1.24-.15 1.72-.54.5-.4.78-1 .78-1.71 0-1.08-.64-1.92-1.52-2.45-.86-.53-2-.8-3.23-.8zm4-5.59c.06-.4.44-.7.85-.64a2.5 2.5 0 0 1-.35 4.98.75.75 0 0 1 0-1.5 1 1 0 0 0 .14-1.99.75.75 0 0 1-.63-.85zM15.76 10a.75.75 0 0 0 0 1.5c1.16 0 1.75.67 1.75 1.25 0 .22-.07.41-.19.55-.1.12-.24.2-.46.2a.75.75 0 0 0 0 1.5c1.43 0 2.15-1.21 2.15-2.25 0-1.71-1.6-2.75-3.25-2.75zM5 10.75a.75.75 0 0 0-.75-.75C2.61 10 1 11.04 1 12.75 1 13.79 1.72 15 3.15 15a.75.75 0 0 0 0-1.5.57.57 0 0 1-.47-.2.86.86 0 0 1-.18-.55c0-.58.6-1.25 1.75-1.25.41 0 .75-.34.75-.75zm.14-6.47a.75.75 0 0 1 .22 1.48 1 1 0 0 0 .14 1.99.75.75 0 1 1 0 1.5 2.5 2.5 0 0 1-.36-4.97z" clip-rule="evenodd"/></symbol><symbol xmlns="http://www.w3.org/2000/svg" id="message" viewBox="0 0 20 20"><g id="message_outline_20__Page-2" fill="currentColor" fill-rule="evenodd" stroke="currentColor" stroke-width="1"><g id="message_outline_20__message_outline_20"><path id="message_outline_20__Shape" d="M0 0h20v20H0z" opacity=".4"/><path id="message_outline_20__Icon-Color" fill="currentColor" fill-rule="nonzero" d="M6.83 15.75c.2-.23.53-.31.82-.2.81.3 1.7.45 2.6.45 3.77 0 6.75-2.7 6.75-6s-2.98-6-6.75-6S3.5 6.7 3.5 10c0 1.21.4 2.37 1.14 3.35.1.14.16.31.15.49-.04.76-.4 1.78-1.08 3.13 1.48-.11 2.5-.53 3.12-1.22ZM3.24 18.5a1.2 1.2 0 0 1-1.1-1.77A10.77 10.77 0 0 0 3.26 14 7 7 0 0 1 2 10c0-4.17 3.68-7.5 8.25-7.5S18.5 5.83 18.5 10s-3.68 7.5-8.25 7.5c-.92 0-1.81-.13-2.66-.4-1 .89-2.46 1.34-4.35 1.4Z"/></g></g></symbol><symbol xmlns="http://www.w3.org/2000/svg" id="moon" fill="none" viewBox="0 0 30 30"><path fill="currentColor" d="M27.602 17.603a12.287 12.287 0 0 1-4.335 6.2 12.188 12.188 0 0 1-19.517-9.74 12.08 12.08 0 0 1 2.447-7.327 12.286 12.286 0 0 1 6.2-4.336.938.938 0 0 1 1.172 1.172 10.322 10.322 0 0 0 12.867 12.867.937.937 0 0 1 1.172 1.172l-.006-.008Z"/></symbol><symbol xmlns="http://www.w3.org/2000/svg" id="notes" fill="none" viewBox="0 0 30 30"><path fill="currentColor" d="M6.25 26.25v-20c0-.688.245-1.276.735-1.766A2.403 2.403 0 0 1 8.75 3.75h12.5c.688 0 1.276.245 1.766.735s.735 1.078.734 1.765v20L15 22.5l-8.75 3.75Z"/></symbol><symbol xmlns="http://www.w3.org/2000/svg" id="photo" fill="none" viewBox="0 0 60 56"><path fill="currentColor" d="M30 19.83c-7.404 0-13.404 6-13.404 13.404s6 13.404 13.404 13.404 13.404-6 13.404-13.404S37.404 19.83 30 19.83Zm0 21.83c-4.596 0-8.425-3.83-8.425-8.426s3.83-8.426 8.425-8.426c4.596 0 8.426 3.83 8.426 8.426S34.596 41.66 30 41.66Z"/><path fill="currentColor" d="M50.936 10.128h-5.745l-.127-1.277c-.638-4.468-4.851-7.915-9.83-7.915h-8.809c-4.978 0-9.19 3.447-9.83 7.915l-.127 1.277h-4.213V8.85a2.56 2.56 0 0 0-2.553-2.553A2.56 2.56 0 0 0 7.15 8.851v1.404C3.064 11.021 0 14.34 0 18.425v28.341c0 4.596 4.085 8.298 9.064 8.298h41.872c4.979 0 9.064-3.702 9.064-8.298v-28.34c0-4.596-4.085-8.298-9.064-8.298Zm0 39.957H9.064c-2.298 0-4.085-1.532-4.085-3.319v-28.34c0-1.915 1.787-3.32 4.085-3.32h9.574c1.15 0 2.298-.893 2.426-2.17l.51-3.447c.256-2.042 2.298-3.574 4.852-3.574h8.808c2.426 0 4.596 1.532 4.851 3.574l.51 3.447c.129 1.277 1.15 2.17 2.427 2.17h7.914c2.298 0 4.085 1.532 4.085 3.32v28.34c0 1.915-1.787 3.32-4.085 3.32Z"/><path fill="currentColor" d="M48.383 18.426h-1.149a2.56 2.56 0 0 0-2.553 2.553 2.56 2.56 0 0 0 2.553 2.553h1.15a2.56 2.56 0 0 0 2.552-2.553 2.56 2.56 0 0 0-2.553-2.553Z"/></symbol><symbol xmlns="http://www.w3.org/2000/svg" id="rotate" fill="none" viewBox="0 0 60 66"><path fill="currentColor" d="M54.904 47.761a2.306 2.306 0 0 0-2.953.923l-.115.208a2.307 2.307 0 0 0 1.52 3.408 2.307 2.307 0 0 0 2.47-1.101l.116-.208a2.304 2.304 0 0 0-1.038-3.23Zm1.638-4.544a2.307 2.307 0 0 0 2.883-1.823v-.208a2.308 2.308 0 0 0-4.544-.807v.23a2.307 2.307 0 0 0 1.66 2.608ZM54.88 31.543v.231a2.307 2.307 0 0 0 4.544-.807v-.231a2.305 2.305 0 0 0-2.883-1.823 2.307 2.307 0 0 0-1.661 2.63ZM41.524 61.118a2.308 2.308 0 0 0-2.861-1.2h-.208a2.307 2.307 0 0 0 .628 4.474c.32.02.64-.026.941-.136h.208a2.308 2.308 0 0 0 1.292-3.138Zm-3.115-48.884h.208a2.307 2.307 0 1 0 1.569-4.337h-.208a2.307 2.307 0 1 0-1.569 4.337ZM51.928 23.47a2.307 2.307 0 0 0 2.976.923 2.308 2.308 0 0 0 1.015-3.253l-.115-.184a2.305 2.305 0 0 0-3.992 2.306l.116.208Zm-5.675-6.782a2.307 2.307 0 0 0 3.636-.939 2.305 2.305 0 0 0-.683-2.614l-.162-.139a2.307 2.307 0 0 0-3.368.462 2.307 2.307 0 0 0 .415 3.091l.162.139Zm3.137 38.918a2.306 2.306 0 0 0-3.114-.139l-.162.162a2.307 2.307 0 0 0-.415 3.068 2.308 2.308 0 0 0 3.368.461l.185-.138a2.308 2.308 0 0 0 .138-3.414Zm-21.985 10.38a2.309 2.309 0 0 0 2.56-2.307 2.308 2.308 0 0 0-2.075-2.307 25.376 25.376 0 0 1-1.57-50.383l-2.975 4.106a2.307 2.307 0 0 0 .53 3.207 2.307 2.307 0 0 0 3.207-.531l4.614-6.367a4.823 4.823 0 0 0 .807-3.668 4.89 4.89 0 0 0-2.099-3.115L23.784.377a2.326 2.326 0 0 0-2.538 3.898l3.483 2.307a29.99 29.99 0 0 0 2.676 59.404Z"/></symbol><symbol xmlns="http://www.w3.org/2000/svg" id="save" fill="none" viewBox="0 0 60 60"><g fill="currentColor" clip-path="url(#a)"><path d="M59.485 11.812 48.188.515A1.758 1.758 0 0 0 46.945 0H6.465A6.472 6.472 0 0 0 0 6.465v47.07C0 57.1 2.9 60 6.465 60h47.07C57.1 60 60 57.1 60 53.535v-40.48c0-.466-.185-.914-.515-1.243ZM41.422 3.516v14.246a2.953 2.953 0 0 1-2.95 2.949h-20.71a2.953 2.953 0 0 1-2.95-2.95V3.517h26.61Zm-26.61 52.968V38.473a2.953 2.953 0 0 1 2.95-2.95h24.476a2.953 2.953 0 0 1 2.95 2.95v18.011H14.811Zm41.672-2.949a2.953 2.953 0 0 1-2.949 2.95h-4.832V38.472c0-3.565-2.9-6.465-6.465-6.465H17.762a6.472 6.472 0 0 0-6.465 6.465v18.011H6.465a2.953 2.953 0 0 1-2.95-2.949V6.465a2.953 2.953 0 0 1 2.95-2.95h4.832v14.247c0 3.564 2.9 6.465 6.465 6.465h20.71c3.565 0 6.465-2.9 6.465-6.465V3.516h1.28l10.267 10.267v39.752Z"/><path d="M35.648 16.695c.971 0 1.758-.787 1.758-1.758V9.29a1.758 1.758 0 0 0-3.515 0v5.649c0 .97.787 1.757 1.757 1.757Z"/></g><defs><clipPath id="a"><path fill="currentColor" d="M0 0h60v60H0z"/></clipPath></defs></symbol><symbol xmlns="http://www.w3.org/2000/svg" id="search" fill="none" viewBox="0 0 30 30"><path fill="currentColor" d="m23.625 25.375-7-7A7.619 7.619 0 0 1 11.875 20c-2.27 0-4.192-.787-5.765-2.36-1.573-1.573-2.36-3.495-2.36-5.765 0-2.27.787-4.192 2.36-5.765 1.573-1.573 3.495-2.36 5.765-2.36 2.27 0 4.192.787 5.765 2.36C19.212 7.683 20 9.605 20 11.875a7.619 7.619 0 0 1-1.625 4.75l7.031 7.031c.23.23.344.51.344.844a1.2 1.2 0 0 1-.375.875c-.23.23-.52.344-.875.344-.354 0-.646-.115-.875-.344ZM11.875 17.5c1.563 0 2.89-.547 3.985-1.641 1.094-1.094 1.64-2.422 1.64-3.984 0-1.563-.547-2.89-1.641-3.985-1.094-1.094-2.422-1.64-3.984-1.64-1.563 0-2.89.547-3.985 1.641-1.094 1.094-1.64 2.422-1.64 3.984 0 1.563.547 2.89 1.641 3.985 1.094 1.094 2.422 1.64 3.984 1.64Z"/></symbol><symbol xmlns="http://www.w3.org/2000/svg" id="tools" fill="none" viewBox="0 0 30 30"><path fill="currentColor" d="m11.563 27.5-.5-4a4.774 4.774 0 0 1-.767-.375 9.97 9.97 0 0 1-.702-.469L5.875 24.22l-3.438-5.94 3.22-2.437a2.99 2.99 0 0 1-.032-.423v-.842c0-.136.01-.277.031-.423L2.438 11.72l3.436-5.94 3.719 1.563c.229-.167.469-.323.719-.469.25-.146.5-.27.75-.375l.5-4h6.874l.5 4c.271.104.527.23.767.375.24.146.474.302.702.469l3.719-1.563 3.438 5.938-3.22 2.437c.022.146.032.287.032.423v.842c0 .136-.02.277-.063.423l3.22 2.437-3.438 5.938-3.688-1.563a8.44 8.44 0 0 1-.718.469c-.25.146-.5.27-.75.375l-.5 4h-6.875Zm3.5-8.125c1.208 0 2.24-.427 3.093-1.281.854-.854 1.282-1.886 1.282-3.094s-.428-2.24-1.282-3.094c-.854-.854-1.885-1.281-3.093-1.281-1.23 0-2.266.427-3.11 1.281-.845.854-1.266 1.886-1.265 3.094 0 1.208.421 2.24 1.264 3.094.844.854 1.88 1.281 3.11 1.281Z"/></symbol></svg>