<svg width="0" height="0"><symbol xmlns="http://www.w3.org/2000/svg" id="account" fill="none" viewBox="0 0 20 20"><path fill="currentColor" fill-rule="evenodd" d="M5.84 15.63a6.97 6.97 0 0 0 8.32 0 8.2 8.2 0 0 0-8.32 0zM4.7 14.57a7 7 0 1 1 10.6 0 9.7 9.7 0 0 0-10.6 0zM10 1.5a8.5 8.5 0 1 0 0 17 8.5 8.5 0 0 0 0-17zm-1.5 7a1.5 1.5 0 1 0 3 0 1.5 1.5 0 0 0-3 0zm1.5-3a3 3 0 1 0 0 6 3 3 0 0 0 0-6z" clip-rule="evenodd"/></symbol><symbol xmlns="http://www.w3.org/2000/svg" id="audio" fill="none" viewBox="0 0 26 25"><path stroke="currentColor" stroke-linecap="round" stroke-linejoin="round" stroke-width="1.5" d="M13 4.167v16.666M8.833 9.375v6.25m12.5-5.208v4.166M4.667 10.417v4.166m12.5-7.291v10.416"/></symbol><symbol xmlns="http://www.w3.org/2000/svg" id="bell-none" fill="none" viewBox="0 0 15 15"><path fill="currentColor" d="M1.125.701a.302.302 0 1 0-.45.404l1.41 1.547A5.665 5.665 0 0 0 1.2 5.704c0 2.71-.644 4.8-1.077 5.547A.9.9 0 0 0 .9 12.604h3.318a2.7 2.7 0 0 0 5.366 0h1.548l1.544 1.702a.298.298 0 0 0 .426.023.3.3 0 0 0 .018-.426L1.125.7ZM6.9 14.405a2.1 2.1 0 0 1-2.079-1.8H8.98a2.1 2.1 0 0 1-2.078 1.8Zm-6-2.4a.292.292 0 0 1-.257-.15.3.3 0 0 1 0-.3C1.2 10.591 1.8 8.352 1.8 5.703a5.07 5.07 0 0 1 .705-2.589l8.081 8.89H.9Zm12.343-.937a.293.293 0 0 1-.279-.031.3.3 0 0 1-.11-.138c-.535-1.357-.853-3.3-.853-5.195a5.1 5.1 0 0 0-7.616-4.439.3.3 0 1 1-.3-.521 5.7 5.7 0 0 1 8.516 4.96c0 2.704.62 4.492.81 4.976a.3.3 0 0 1-.17.388h.002Z"/></symbol><symbol xmlns="http://www.w3.org/2000/svg" id="bell" fill="none" viewBox="0 0 25 25"><path fill="currentColor" d="M21.323 17.383c-.563-.977-1.401-3.698-1.401-7.227a7.422 7.422 0 1 0-14.844 0c0 3.529-.839 6.25-1.402 7.222a1.172 1.172 0 0 0 1.011 1.763h4.32a3.515 3.515 0 0 0 6.986 0h4.32a1.172 1.172 0 0 0 1.01-1.758ZM12.5 21.484a2.735 2.735 0 0 1-2.706-2.343h5.412a2.734 2.734 0 0 1-2.706 2.343Zm8.15-3.32a.381.381 0 0 1-.337.195H4.687a.381.381 0 0 1-.336-.195.39.39 0 0 1 0-.39c.727-1.254 1.508-4.169 1.508-7.618a6.64 6.64 0 0 1 13.281 0c0 3.448.782 6.364 1.508 7.617a.392.392 0 0 1 .001.391Z"/></symbol><symbol xmlns="http://www.w3.org/2000/svg" id="castle" fill="none" viewBox="0 0 15 15"><g clip-path="url(#a)"><path fill="currentColor" d="M3.429 15c-.393 0-.73-.14-1.01-.42A1.37 1.37 0 0 1 2 13.571V6.43c0-.393.14-.73.42-1.01.28-.28.616-.42 1.009-.42h.714V3.571c0-.988.348-1.83 1.045-2.527A3.44 3.44 0 0 1 7.714 0c.988 0 1.83.348 2.527 1.045a3.44 3.44 0 0 1 1.045 2.526V5H12c.393 0 .73.14 1.01.42.28.28.419.616.419 1.009v7.142c0 .393-.14.73-.42 1.01-.28.28-.617.42-1.009.419H3.429Zm0-1.429H12V6.43H3.429v7.142Zm4.285-2.142c.393 0 .73-.14 1.01-.42.28-.28.42-.617.419-1.009 0-.393-.14-.73-.42-1.01a1.37 1.37 0 0 0-1.009-.419c-.393 0-.729.14-1.009.42-.28.28-.42.617-.42 1.009 0 .393.14.73.42 1.01.28.28.617.419 1.01.419ZM5.571 5h4.286V3.571c0-.595-.208-1.1-.625-1.517a2.067 2.067 0 0 0-1.518-.625c-.595 0-1.1.208-1.518.625a2.066 2.066 0 0 0-.625 1.517V5Z"/></g><defs><clipPath id="a"><path fill="currentColor" d="M0 0h15v15H0z"/></clipPath></defs></symbol><symbol xmlns="http://www.w3.org/2000/svg" id="check-mark" fill="none" viewBox="0 0 15 15"><path stroke="currentColor" stroke-linecap="round" d="m4 7 2.5 2.5L11 5"/><rect width="14" height="14" x=".5" y=".5" stroke="currentColor" rx="7"/></symbol><symbol xmlns="http://www.w3.org/2000/svg" id="close" fill="none" viewBox="0 0 13 14"><path stroke="currentColor" stroke-linecap="round" d="m.5 1 6 6m6 6-6-6m0 0 6-6m-6 6-6 6"/></symbol><symbol xmlns="http://www.w3.org/2000/svg" id="delete" fill="none" viewBox="0 0 15 15"><path fill="currentColor" d="M10 1.75V3h2.25a.75.75 0 1 1 0 1.5H1.75a.75.75 0 0 1 0-1.5H4V1.75C4 .784 4.784 0 5.75 0h2.5C9.216 0 10 .784 10 1.75ZM3.496 6.675l.66 6.6a.25.25 0 0 0 .249.225h5.19a.25.25 0 0 0 .249-.225l.66-6.6a.75.75 0 0 1 1.492.149l-.66 6.6A1.748 1.748 0 0 1 9.595 15h-5.19a1.75 1.75 0 0 1-1.741-1.575l-.66-6.6a.75.75 0 1 1 1.492-.15ZM5.5 1.75V3h3V1.75a.25.25 0 0 0-.25-.25h-2.5a.25.25 0 0 0-.25.25Z"/></symbol><symbol xmlns="http://www.w3.org/2000/svg" id="exit" fill="currentColor" viewBox="0 0 20 20"><path fill-rule="evenodd" d="M8.32 2h.93a.75.75 0 1 1 0 1.5h-.9c-1 0-1.7 0-2.24.04a2.9 2.9 0 0 0-1.1.26A2.75 2.75 0 0 0 3.8 5c-.13.25-.21.57-.26 1.11-.04.55-.04 1.25-.04 2.24v3.3c0 1 0 1.7.04 2.24.05.53.13.86.26 1.1A2.75 2.75 0 0 0 5 16.2c.25.13.57.21 1.11.26.55.04 1.25.04 2.24.04h.9a.75.75 0 0 1 0 1.5h-.93c-.96 0-1.72 0-2.33-.05a4.39 4.39 0 0 1-1.67-.41 4.25 4.25 0 0 1-1.86-1.86A4.38 4.38 0 0 1 2.05 14C2 13.4 2 12.64 2 11.68V8.32c0-.96 0-1.72.05-2.33.05-.63.16-1.17.41-1.67a4.25 4.25 0 0 1 1.86-1.86c.5-.25 1.04-.36 1.67-.41C6.6 2 7.36 2 8.32 2Zm5.9 4.97a.75.75 0 0 1 1.06 0l2.5 2.5a.75.75 0 0 1 0 1.06l-2.5 2.5a.75.75 0 1 1-1.06-1.06l1.22-1.22H8.75a.75.75 0 0 1 0-1.5h6.69l-1.22-1.22a.75.75 0 0 1 0-1.06Z" clip-rule="evenodd"/></symbol><symbol xmlns="http://www.w3.org/2000/svg" id="files" fill="none" viewBox="0 0 25 25"><path stroke="currentColor" stroke-linecap="round" stroke-width="1.5" d="M18.75 10.417h-5.208"/><path stroke="currentColor" stroke-width="1.5" d="M10.417 3.125h6.77c.484 0 .727 0 .93.027a3.125 3.125 0 0 1 2.69 2.69c.026.203.026.446.026.929"/><path stroke="currentColor" stroke-linecap="round" stroke-width="1.5" d="M22.917 12.29c0-2.742 0-4.114-.802-5.005a3.13 3.13 0 0 0-.234-.234c-.89-.801-2.262-.801-5.004-.801h-.39c-1.2 0-1.802 0-2.362-.16a4.167 4.167 0 0 1-.883-.366c-.509-.282-.934-.708-1.784-1.557l-.573-.573a9.164 9.164 0 0 0-.577-.552 4.166 4.166 0 0 0-2.27-.941c-.194-.018-.396-.018-.798-.018-.92 0-1.38 0-1.763.073a4.167 4.167 0 0 0-3.32 3.32c-.074.384-.074.845-.074 1.764m20.824 9.427c-.037 2.583-.229 4.046-1.211 5.029-1.22 1.22-3.184 1.22-7.113 1.22h-4.166c-3.928 0-5.893 0-7.113-1.22-1.22-1.22-1.22-3.184-1.22-7.113v-3.125"/></symbol><symbol xmlns="http://www.w3.org/2000/svg" id="flip" fill="none" viewBox="0 0 60 74"><path fill="currentColor" d="M40 66.667h6.667V60H40v6.667Zm13.333-40H60V20h-6.667v6.667ZM0 13.333V60c0 3.667 3 6.667 6.667 6.667H20V60H6.667V13.333H20V6.667H6.667C3 6.667 0 9.667 0 13.333Zm53.333-6.666v6.666H60c0-3.666-3-6.666-6.667-6.666ZM26.667 73.333h6.666V0h-6.666v73.333Zm26.666-20H60v-6.666h-6.667v6.666ZM40 13.333h6.667V6.667H40v6.666ZM53.333 40H60v-6.667h-6.667V40Zm0 26.667C57 66.667 60 63.667 60 60h-6.667v6.667Z"/></symbol><symbol xmlns="http://www.w3.org/2000/svg" id="friends" fill="none" viewBox="0 0 30 30"><path fill="currentColor" d="M19.687 15c-1.204 0-2.37-.538-3.28-1.514-.887-.952-1.429-2.222-1.524-3.574-.102-1.443.338-2.77 1.238-3.736.901-.967 2.16-1.489 3.566-1.489 1.397 0 2.66.531 3.557 1.496.907.974 1.348 2.298 1.246 3.728-.098 1.354-.639 2.623-1.524 3.574-.909.977-2.073 1.515-3.279 1.515Zm7.725 10.313H11.964a1.624 1.624 0 0 1-1.29-.626 1.771 1.771 0 0 1-.308-1.51c.494-1.982 1.716-3.625 3.535-4.752 1.614-1 3.669-1.55 5.786-1.55 2.16 0 4.16.527 5.784 1.526 1.823 1.121 3.047 2.774 3.538 4.779a1.773 1.773 0 0 1-.312 1.51 1.622 1.622 0 0 1-1.285.622ZM8.613 15.233c-2.062 0-3.875-1.917-4.043-4.273-.083-1.207.293-2.323 1.055-3.142.753-.81 1.816-1.256 2.988-1.256s2.227.448 2.984 1.263c.768.825 1.143 1.94 1.055 3.136-.168 2.356-1.98 4.272-4.039 4.272Zm3.848 1.843c-1.031-.504-2.369-.756-3.847-.756-1.726 0-3.403.45-4.721 1.267-1.495.928-2.5 2.278-2.906 3.909a1.605 1.605 0 0 0 .28 1.369 1.484 1.484 0 0 0 1.177.572h6.504a.469.469 0 0 0 .461-.386 1.57 1.57 0 0 1 .025-.11c.496-1.995 1.66-3.682 3.381-4.91a.47.47 0 0 0-.037-.785 4.745 4.745 0 0 0-.318-.17Z"/></symbol><symbol xmlns="http://www.w3.org/2000/svg" id="gift" fill="none" viewBox="0 0 15 15"><g clip-path="url(#a)"><path fill="currentColor" fill-rule="evenodd" d="M3.334 2.535A2.528 2.528 0 0 1 7.807.92a2.528 2.528 0 0 1 4.077 2.977h.591a2.14 2.14 0 0 1 2.14 2.14v1.555a1.361 1.361 0 0 1-.997 1.313c.112 1.42.047 2.851-.194 4.258a1.912 1.912 0 0 1-1.673 1.578l-.712.079c-2.148.24-4.316.24-6.464 0l-.711-.08a1.913 1.913 0 0 1-1.673-1.577 17.202 17.202 0 0 1-.194-4.258A1.361 1.361 0 0 1 1 7.592V6.036a2.14 2.14 0 0 1 2.14-2.14h.59a2.517 2.517 0 0 1-.396-1.36Zm3.89 0a1.361 1.361 0 1 0-2.723 0 1.361 1.361 0 0 0 2.723 0Zm2.528 1.362a1.361 1.361 0 1 0 0-2.723 1.361 1.361 0 0 0 0 2.723Zm-7.585 2.14c0-.537.436-.973.972-.973h4.085v2.723H2.36a.195.195 0 0 1-.194-.195V6.036Zm6.224 2.917h4.06a16.04 16.04 0 0 1-.177 4.011.746.746 0 0 1-.653.616l-.711.08c-.837.093-1.678.148-2.52.166V8.954Zm0-1.167h4.862a.195.195 0 0 0 .195-.195V6.036a.973.973 0 0 0-.973-.972H8.391v2.723ZM7.224 8.954v4.873a27.909 27.909 0 0 1-2.52-.166l-.71-.08a.746.746 0 0 1-.653-.615 16.037 16.037 0 0 1-.177-4.012h4.06Z" clip-rule="evenodd"/></g></symbol><symbol xmlns="http://www.w3.org/2000/svg" id="group" fill="none" viewBox="0 0 20 20"><path fill="currentColor" fill-rule="evenodd" d="M10 7.75a1.25 1.25 0 1 1 0-2.5 1.25 1.25 0 0 1 0 2.5zM7.25 6.5a2.75 2.75 0 1 1 5.5 0 2.75 2.75 0 0 1-5.5 0zm-.5 7.25c0-.42.23-.83.8-1.17A4.81 4.81 0 0 1 10 12c1.03 0 1.88.23 2.45.58.57.34.8.75.8 1.17 0 .3-.1.44-.22.54-.14.11-.4.21-.78.21h-4.5c-.39 0-.64-.1-.78-.21-.12-.1-.22-.25-.22-.54zM10 10.5c-1.22 0-2.37.27-3.23.8-.88.53-1.52 1.37-1.52 2.45 0 .7.28 1.3.78 1.71.48.39 1.1.54 1.72.54h4.5c.61 0 1.24-.15 1.72-.54.5-.4.78-1 .78-1.71 0-1.08-.64-1.92-1.52-2.45-.86-.53-2-.8-3.23-.8zm4-5.59c.06-.4.44-.7.85-.64a2.5 2.5 0 0 1-.35 4.98.75.75 0 0 1 0-1.5 1 1 0 0 0 .14-1.99.75.75 0 0 1-.63-.85zM15.76 10a.75.75 0 0 0 0 1.5c1.16 0 1.75.67 1.75 1.25 0 .22-.07.41-.19.55-.1.12-.24.2-.46.2a.75.75 0 0 0 0 1.5c1.43 0 2.15-1.21 2.15-2.25 0-1.71-1.6-2.75-3.25-2.75zM5 10.75a.75.75 0 0 0-.75-.75C2.61 10 1 11.04 1 12.75 1 13.79 1.72 15 3.15 15a.75.75 0 0 0 0-1.5.57.57 0 0 1-.47-.2.86.86 0 0 1-.18-.55c0-.58.6-1.25 1.75-1.25.41 0 .75-.34.75-.75zm.14-6.47a.75.75 0 0 1 .22 1.48 1 1 0 0 0 .14 1.99.75.75 0 1 1 0 1.5 2.5 2.5 0 0 1-.36-4.97z" clip-rule="evenodd"/></symbol><symbol xmlns="http://www.w3.org/2000/svg" id="info" fill="none" viewBox="0 0 23 23"><path stroke="currentColor" stroke-linecap="round" stroke-width="1.5" d="M11.5 16.708v-6.25"/><path fill="currentColor" d="M11.5 6.292a1.042 1.042 0 1 1 0 2.083 1.042 1.042 0 0 1 0-2.083Z"/><path stroke="currentColor" stroke-linecap="round" stroke-width="1.5" d="M6.292 2.477A10.369 10.369 0 0 1 11.5 1.083c5.753 0 10.417 4.664 10.417 10.417S17.253 21.917 11.5 21.917 1.083 17.253 1.083 11.5c0-1.897.508-3.677 1.394-5.208"/></symbol><symbol xmlns="http://www.w3.org/2000/svg" id="link" fill="none" viewBox="0 0 26 25"><path fill="currentColor" d="M22.675 3.45a5.401 5.401 0 0 1 0 7.625l-1.913 1.9c-1.4 1.4-3.375 1.838-5.175 1.363l3.276-3.263.95-.962.95-.95a2.686 2.686 0 0 0 0-3.8 2.662 2.662 0 0 0-3.8 0l-.963.95-4.225 4.224c-.463-1.8-.025-3.775 1.375-5.175l1.9-1.912a5.401 5.401 0 0 1 7.625 0ZM11.237 16.788l6.676-6.675a1.343 1.343 0 0 0 0-1.9c-.55-.538-1.413-.488-1.913 0l-6.662 6.675a1.343 1.343 0 0 0 0 1.9c.55.537 1.412.487 1.9 0Zm-.95 2.862 5.175-5.187c.476 1.8.038 3.775-1.362 5.175l-1.9 1.912a5.401 5.401 0 0 1-7.625 0 5.401 5.401 0 0 1 0-7.625l1.912-1.9c1.4-1.4 3.376-1.838 5.175-1.375l-5.175 5.188a2.678 2.678 0 0 0 0 3.812 2.686 2.686 0 0 0 3.8 0Z"/></symbol><symbol xmlns="http://www.w3.org/2000/svg" id="media" fill="none" viewBox="0 0 26 25"><path fill="currentColor" d="M7.792 17.708a2.007 2.007 0 0 1-1.472-.612 2.002 2.002 0 0 1-.612-1.471V4.167c0-.573.204-1.064.613-1.472a2.002 2.002 0 0 1 1.47-.612h4.35a2.061 2.061 0 0 1 1.458.6l1.484 1.484h7.292c.573 0 1.064.204 1.472.612.408.409.612.899.611 1.471v9.375c0 .573-.204 1.064-.612 1.472a2.002 2.002 0 0 1-1.471.611H7.792Zm-4.167 4.167a2.007 2.007 0 0 1-1.472-.613 2.002 2.002 0 0 1-.611-1.47v-12.5c0-.295.1-.543.3-.743.2-.2.447-.3.741-.299.295 0 .543.1.743.3.2.2.3.447.299.742v12.5h16.667c.295 0 .542.1.742.3.2.2.3.447.3.741 0 .296-.1.543-.3.743-.2.2-.448.3-.742.299H3.625Zm7.318-8.333h8.28c.227 0 .387-.096.483-.287.096-.19.074-.373-.065-.547l-2.526-3.307a.495.495 0 0 0-.417-.208.495.495 0 0 0-.417.208l-1.979 2.578-1.198-1.562a.495.495 0 0 0-.416-.209.495.495 0 0 0-.417.209l-1.745 2.291a.477.477 0 0 0-.066.547c.095.191.256.287.483.287Z"/></symbol><symbol xmlns="http://www.w3.org/2000/svg" id="message" viewBox="0 0 20 20"><g id="message_outline_20__Page-2" fill="currentColor" fill-rule="evenodd" stroke="currentColor" stroke-width="1"><g id="message_outline_20__message_outline_20"><path id="message_outline_20__Shape" d="M0 0h20v20H0z" opacity=".4"/><path id="message_outline_20__Icon-Color" fill="currentColor" fill-rule="nonzero" d="M6.83 15.75c.2-.23.53-.31.82-.2.81.3 1.7.45 2.6.45 3.77 0 6.75-2.7 6.75-6s-2.98-6-6.75-6S3.5 6.7 3.5 10c0 1.21.4 2.37 1.14 3.35.1.14.16.31.15.49-.04.76-.4 1.78-1.08 3.13 1.48-.11 2.5-.53 3.12-1.22ZM3.24 18.5a1.2 1.2 0 0 1-1.1-1.77A10.77 10.77 0 0 0 3.26 14 7 7 0 0 1 2 10c0-4.17 3.68-7.5 8.25-7.5S18.5 5.83 18.5 10s-3.68 7.5-8.25 7.5c-.92 0-1.81-.13-2.66-.4-1 .89-2.46 1.34-4.35 1.4Z"/></g></g></symbol><symbol xmlns="http://www.w3.org/2000/svg" id="microphone" fill="none" viewBox="0 0 30 30"><path fill="currentColor" d="M15 2.5a3.75 3.75 0 0 1 3.75 3.75v7.5a3.75 3.75 0 0 1-7.5 0v-7.5A3.75 3.75 0 0 1 15 2.5Zm8.75 11.25c0 4.413-3.262 8.05-7.5 8.663v3.837h-2.5v-3.837c-4.238-.613-7.5-4.25-7.5-8.663h2.5a6.25 6.25 0 1 0 12.5 0h2.5Z"/></symbol><symbol xmlns="http://www.w3.org/2000/svg" id="moon" fill="none" viewBox="0 0 30 30"><path fill="currentColor" d="M27.602 17.603a12.287 12.287 0 0 1-4.335 6.2 12.188 12.188 0 0 1-19.517-9.74 12.08 12.08 0 0 1 2.447-7.327 12.286 12.286 0 0 1 6.2-4.336.938.938 0 0 1 1.172 1.172 10.322 10.322 0 0 0 12.867 12.867.937.937 0 0 1 1.172 1.172l-.006-.008Z"/></symbol><symbol xmlns="http://www.w3.org/2000/svg" id="notes" fill="none" viewBox="0 0 30 30"><path fill="currentColor" d="M6.25 26.25v-20c0-.688.245-1.276.735-1.766A2.403 2.403 0 0 1 8.75 3.75h12.5c.688 0 1.276.245 1.766.735s.735 1.078.734 1.765v20L15 22.5l-8.75 3.75Z"/></symbol><symbol xmlns="http://www.w3.org/2000/svg" id="pen" fill="none" viewBox="0 0 30 30"><path fill="currentColor" d="M25.887 8.8c.488-.488.488-1.3 0-1.763l-2.925-2.925c-.462-.487-1.274-.487-1.762 0L18.9 6.4l4.688 4.688M3.75 21.563v4.687h4.688l13.824-13.838-4.687-4.687L3.75 21.563Z"/></symbol><symbol xmlns="http://www.w3.org/2000/svg" id="photo" fill="none" viewBox="0 0 60 56"><path fill="currentColor" d="M30 19.83c-7.404 0-13.404 6-13.404 13.404s6 13.404 13.404 13.404 13.404-6 13.404-13.404S37.404 19.83 30 19.83Zm0 21.83c-4.596 0-8.425-3.83-8.425-8.426s3.83-8.426 8.425-8.426c4.596 0 8.426 3.83 8.426 8.426S34.596 41.66 30 41.66Z"/><path fill="currentColor" d="M50.936 10.128h-5.745l-.127-1.277c-.638-4.468-4.851-7.915-9.83-7.915h-8.809c-4.978 0-9.19 3.447-9.83 7.915l-.127 1.277h-4.213V8.85a2.56 2.56 0 0 0-2.553-2.553A2.56 2.56 0 0 0 7.15 8.851v1.404C3.064 11.021 0 14.34 0 18.425v28.341c0 4.596 4.085 8.298 9.064 8.298h41.872c4.979 0 9.064-3.702 9.064-8.298v-28.34c0-4.596-4.085-8.298-9.064-8.298Zm0 39.957H9.064c-2.298 0-4.085-1.532-4.085-3.319v-28.34c0-1.915 1.787-3.32 4.085-3.32h9.574c1.15 0 2.298-.893 2.426-2.17l.51-3.447c.256-2.042 2.298-3.574 4.852-3.574h8.808c2.426 0 4.596 1.532 4.851 3.574l.51 3.447c.129 1.277 1.15 2.17 2.427 2.17h7.914c2.298 0 4.085 1.532 4.085 3.32v28.34c0 1.915-1.787 3.32-4.085 3.32Z"/><path fill="currentColor" d="M48.383 18.426h-1.149a2.56 2.56 0 0 0-2.553 2.553 2.56 2.56 0 0 0 2.553 2.553h1.15a2.56 2.56 0 0 0 2.552-2.553 2.56 2.56 0 0 0-2.553-2.553Z"/></symbol><symbol xmlns="http://www.w3.org/2000/svg" id="picture" fill="none" viewBox="0 0 15 15"><g stroke="currentColor" stroke-linecap="round" stroke-linejoin="round" clip-path="url(#a)"><path d="M1.618 14.464h11.785c.592 0 1.072-.48 1.072-1.071V1.607c0-.592-.48-1.071-1.072-1.071H1.618c-.592 0-1.072.48-1.072 1.071v11.786c0 .592.48 1.071 1.072 1.071Z"/><path d="M9.91 6.964a1.875 1.875 0 1 0 0-3.75 1.875 1.875 0 0 0 0 3.75Zm.161 7.5a7.886 7.886 0 0 0-7.928-6.428 8.442 8.442 0 0 0-1.607.15"/><path d="M14.464 10.618a8.356 8.356 0 0 0-2.678-.44 8.453 8.453 0 0 0-3.354.686"/></g></symbol><symbol xmlns="http://www.w3.org/2000/svg" id="points" fill="none" viewBox="0 0 20 21"><rect width="5" height="5" x="7" fill="currentColor" rx="2.5"/><rect width="5" height="5" x="7" y="8" fill="currentColor" rx="2.5"/><rect width="5" height="5" x="7" y="16" fill="currentColor" rx="2.5"/></symbol><symbol xmlns="http://www.w3.org/2000/svg" id="profile" fill="none" viewBox="0 0 26 25"><path fill="currentColor" d="M12.727 13a5 5 0 1 0 0-10 5 5 0 0 0 0 10Zm-5 1.818A2.727 2.727 0 0 0 5 17.546v.136S5 23 12.727 23s7.727-5.318 7.727-5.318v-.136a2.727 2.727 0 0 0-2.727-2.728h-10Z"/></symbol><symbol xmlns="http://www.w3.org/2000/svg" id="repost" fill="none" viewBox="0 0 15 15"><g clip-path="url(#a)"><path fill="currentColor" d="M14.88 6.574 9.426 1.12a.41.41 0 0 0-.699.289v2.877C5.013 4.531.52 8.036.005 12.513a.682.682 0 0 0 1.174.546c.768-.82 3.526-3.427 7.548-3.596v2.855a.409.409 0 0 0 .699.29l5.454-5.455a.41.41 0 0 0 0-.579Zm-5.334 4.757V9.045a.41.41 0 0 0-.41-.409c-1.89 0-3.733.495-5.476 1.47a13.185 13.185 0 0 0-2.783 2.09c.32-1.812 1.375-3.546 3-4.928 1.61-1.363 3.575-2.177 5.26-2.177a.41.41 0 0 0 .409-.41V2.398l4.466 4.466-4.466 4.468Z"/></g></symbol><symbol xmlns="http://www.w3.org/2000/svg" id="rotate" fill="none" viewBox="0 0 60 66"><path fill="currentColor" d="M54.904 47.761a2.306 2.306 0 0 0-2.953.923l-.115.208a2.307 2.307 0 0 0 1.52 3.408 2.307 2.307 0 0 0 2.47-1.101l.116-.208a2.304 2.304 0 0 0-1.038-3.23Zm1.638-4.544a2.307 2.307 0 0 0 2.883-1.823v-.208a2.308 2.308 0 0 0-4.544-.807v.23a2.307 2.307 0 0 0 1.66 2.608ZM54.88 31.543v.231a2.307 2.307 0 0 0 4.544-.807v-.231a2.305 2.305 0 0 0-2.883-1.823 2.307 2.307 0 0 0-1.661 2.63ZM41.524 61.118a2.308 2.308 0 0 0-2.861-1.2h-.208a2.307 2.307 0 0 0 .628 4.474c.32.02.64-.026.941-.136h.208a2.308 2.308 0 0 0 1.292-3.138Zm-3.115-48.884h.208a2.307 2.307 0 1 0 1.569-4.337h-.208a2.307 2.307 0 1 0-1.569 4.337ZM51.928 23.47a2.307 2.307 0 0 0 2.976.923 2.308 2.308 0 0 0 1.015-3.253l-.115-.184a2.305 2.305 0 0 0-3.992 2.306l.116.208Zm-5.675-6.782a2.307 2.307 0 0 0 3.636-.939 2.305 2.305 0 0 0-.683-2.614l-.162-.139a2.307 2.307 0 0 0-3.368.462 2.307 2.307 0 0 0 .415 3.091l.162.139Zm3.137 38.918a2.306 2.306 0 0 0-3.114-.139l-.162.162a2.307 2.307 0 0 0-.415 3.068 2.308 2.308 0 0 0 3.368.461l.185-.138a2.308 2.308 0 0 0 .138-3.414Zm-21.985 10.38a2.309 2.309 0 0 0 2.56-2.307 2.308 2.308 0 0 0-2.075-2.307 25.376 25.376 0 0 1-1.57-50.383l-2.975 4.106a2.307 2.307 0 0 0 .53 3.207 2.307 2.307 0 0 0 3.207-.531l4.614-6.367a4.823 4.823 0 0 0 .807-3.668 4.89 4.89 0 0 0-2.099-3.115L23.784.377a2.326 2.326 0 0 0-2.538 3.898l3.483 2.307a29.99 29.99 0 0 0 2.676 59.404Z"/></symbol><symbol xmlns="http://www.w3.org/2000/svg" id="save" fill="none" viewBox="0 0 60 60"><g fill="currentColor" clip-path="url(#a)"><path d="M59.485 11.812 48.188.515A1.758 1.758 0 0 0 46.945 0H6.465A6.472 6.472 0 0 0 0 6.465v47.07C0 57.1 2.9 60 6.465 60h47.07C57.1 60 60 57.1 60 53.535v-40.48c0-.466-.185-.914-.515-1.243ZM41.422 3.516v14.246a2.953 2.953 0 0 1-2.95 2.949h-20.71a2.953 2.953 0 0 1-2.95-2.95V3.517h26.61Zm-26.61 52.968V38.473a2.953 2.953 0 0 1 2.95-2.95h24.476a2.953 2.953 0 0 1 2.95 2.95v18.011H14.811Zm41.672-2.949a2.953 2.953 0 0 1-2.949 2.95h-4.832V38.472c0-3.565-2.9-6.465-6.465-6.465H17.762a6.472 6.472 0 0 0-6.465 6.465v18.011H6.465a2.953 2.953 0 0 1-2.95-2.949V6.465a2.953 2.953 0 0 1 2.95-2.95h4.832v14.247c0 3.564 2.9 6.465 6.465 6.465h20.71c3.565 0 6.465-2.9 6.465-6.465V3.516h1.28l10.267 10.267v39.752Z"/><path d="M35.648 16.695c.971 0 1.758-.787 1.758-1.758V9.29a1.758 1.758 0 0 0-3.515 0v5.649c0 .97.787 1.757 1.757 1.757Z"/></g></symbol><symbol xmlns="http://www.w3.org/2000/svg" id="search" fill="none" viewBox="0 0 21 21"><path fill="currentColor" d="m18.094 20.187-6.373-6.373a6.934 6.934 0 0 1-4.324 1.48c-2.067 0-3.817-.716-5.248-2.149C.717 11.713 0 9.963 0 7.897 0 5.83.716 4.08 2.149 2.649 3.58 1.217 5.33.5 7.397.5s3.817.716 5.248 2.149c1.432 1.432 2.148 3.181 2.149 5.248a6.935 6.935 0 0 1-1.48 4.324l6.401 6.401c.21.209.314.465.314.768 0 .304-.114.57-.342.797a1.08 1.08 0 0 1-.797.313c-.322 0-.588-.104-.796-.313Zm-10.697-7.17c1.422 0 2.632-.497 3.628-1.493.996-.996 1.493-2.205 1.493-3.627 0-1.423-.498-2.632-1.494-3.628S8.819 2.775 7.397 2.776c-1.423 0-2.632.498-3.628 1.494S2.275 6.475 2.276 7.897c0 1.422.498 2.632 1.494 3.628s2.205 1.493 3.627 1.493Z"/></symbol><symbol xmlns="http://www.w3.org/2000/svg" id="smiley" fill="none" viewBox="0 0 30 30"><path fill="currentColor" d="M15 2.813A12.187 12.187 0 1 0 27.188 15 12.2 12.2 0 0 0 15 2.812Zm0 22.5A10.312 10.312 0 1 1 25.313 15 10.324 10.324 0 0 1 15 25.313ZM9.375 12.655a1.406 1.406 0 1 1 2.812 0 1.406 1.406 0 0 1-2.812 0Zm11.25 0a1.406 1.406 0 1 1-2.812 0 1.406 1.406 0 0 1 2.812 0ZM20.5 18.28c-1.206 2.085-3.211 3.282-5.5 3.282s-4.293-1.196-5.498-3.282a.937.937 0 1 1 1.621-.937C12 18.857 13.375 19.687 15 19.687s3.001-.832 3.875-2.343a.938.938 0 1 1 1.625.937Z"/></symbol><symbol xmlns="http://www.w3.org/2000/svg" id="tel" fill="none" viewBox="0 0 21 20"><path fill="currentColor" fill-rule="evenodd" d="M2.407.638a2.181 2.181 0 0 1 3.262.204l2.244 2.882a2.18 2.18 0 0 1 .394 1.868l-.684 2.737a.848.848 0 0 0 .223.804l3.071 3.072a.848.848 0 0 0 .805.222l2.737-.684a2.18 2.18 0 0 1 1.867.394l2.883 2.243a2.18 2.18 0 0 1 .204 3.263l-1.293 1.293c-.925.925-2.308 1.331-3.596.878a23.294 23.294 0 0 1-8.763-5.526A23.294 23.294 0 0 1 .235 5.527c-.452-1.288-.046-2.672.88-3.597L2.406.638Z" clip-rule="evenodd"/></symbol><symbol xmlns="http://www.w3.org/2000/svg" id="tools" fill="none" viewBox="0 0 30 30"><path fill="currentColor" d="m11.563 27.5-.5-4a4.774 4.774 0 0 1-.767-.375 9.97 9.97 0 0 1-.702-.469L5.875 24.22l-3.438-5.94 3.22-2.437a2.99 2.99 0 0 1-.032-.423v-.842c0-.136.01-.277.031-.423L2.438 11.72l3.436-5.94 3.719 1.563c.229-.167.469-.323.719-.469.25-.146.5-.27.75-.375l.5-4h6.874l.5 4c.271.104.527.23.767.375.24.146.474.302.702.469l3.719-1.563 3.438 5.938-3.22 2.437c.022.146.032.287.032.423v.842c0 .136-.02.277-.063.423l3.22 2.437-3.438 5.938-3.688-1.563a8.44 8.44 0 0 1-.718.469c-.25.146-.5.27-.75.375l-.5 4h-6.875Zm3.5-8.125c1.208 0 2.24-.427 3.093-1.281.854-.854 1.282-1.886 1.282-3.094s-.428-2.24-1.282-3.094c-.854-.854-1.885-1.281-3.093-1.281-1.23 0-2.266.427-3.11 1.281-.845.854-1.266 1.886-1.265 3.094 0 1.208.421 2.24 1.264 3.094.844.854 1.88 1.281 3.11 1.281Z"/></symbol><symbol xmlns="http://www.w3.org/2000/svg" id="video" fill="none" viewBox="0 0 15 10"><path fill="currentColor" fill-rule="evenodd" d="M0 2C0 1.47.198.96.55.586A1.818 1.818 0 0 1 1.874 0h7.031c.455 0 .894.176 1.236.496.342.32.564.761.623 1.242L13.681.356a.886.886 0 0 1 .892.075c.13.09.239.214.313.36.075.147.114.311.114.478v7.462c0 .167-.04.33-.114.477a.979.979 0 0 1-.313.36.886.886 0 0 1-.891.075l-2.917-1.381c-.06.48-.28.922-.623 1.242-.342.32-.781.496-1.236.496H1.875c-.497 0-.974-.21-1.326-.586A2.07 2.07 0 0 1 0 8V2Zm10.781 5.175 3.281 1.556V1.269l-3.28 1.556v4.35ZM1.875 1a.909.909 0 0 0-.663.293A1.035 1.035 0 0 0 .938 2v6c0 .265.098.52.274.707A.909.909 0 0 0 1.875 9h7.031a.909.909 0 0 0 .663-.293c.176-.187.275-.442.275-.707V2c0-.265-.099-.52-.275-.707A.909.909 0 0 0 8.906 1H1.875Z" clip-rule="evenodd"/></symbol></svg>