<svg width="0" height="0"><symbol xmlns="http://www.w3.org/2000/svg" id="account" fill="none" viewBox="0 0 20 20"><path fill="currentColor" fill-rule="evenodd" d="M5.84 15.63a6.97 6.97 0 0 0 8.32 0 8.2 8.2 0 0 0-8.32 0zM4.7 14.57a7 7 0 1 1 10.6 0 9.7 9.7 0 0 0-10.6 0zM10 1.5a8.5 8.5 0 1 0 0 17 8.5 8.5 0 0 0 0-17zm-1.5 7a1.5 1.5 0 1 0 3 0 1.5 1.5 0 0 0-3 0zm1.5-3a3 3 0 1 0 0 6 3 3 0 0 0 0-6z" clip-rule="evenodd"/></symbol><symbol xmlns="http://www.w3.org/2000/svg" id="delete" fill="none" viewBox="0 0 61 74"><path fill="currentColor" d="M40.276 26.81c-.958 0-1.734.776-1.734 1.734v32.754a1.733 1.733 0 0 0 3.467 0V28.542c0-.957-.776-1.732-1.733-1.732Zm-20.45 0c-.957 0-1.733.776-1.733 1.734v32.754a1.733 1.733 0 0 0 3.466 0V28.542c0-.957-.776-1.732-1.733-1.732Z"/><path fill="currentColor" d="M4.922 22.03v42.698c0 2.524.925 4.894 2.542 6.595A8.534 8.534 0 0 0 13.656 74h32.79a8.532 8.532 0 0 0 6.192-2.677c1.616-1.7 2.541-4.07 2.541-6.595V22.031a6.62 6.62 0 0 0-1.698-13.02h-8.873V6.847A6.808 6.808 0 0 0 37.745 0H22.357a6.809 6.809 0 0 0-6.864 6.846v2.166H6.621A6.621 6.621 0 0 0 4.922 22.03Zm41.523 48.504H13.656c-2.963 0-5.268-2.546-5.268-5.806V22.183h43.325v42.545c0 3.26-2.305 5.806-5.268 5.806ZM18.96 6.846a3.337 3.337 0 0 1 3.398-3.38h15.388a3.338 3.338 0 0 1 3.397 3.38v2.166H18.959V6.846ZM6.621 12.478h46.86a3.12 3.12 0 0 1 0 6.239H6.621a3.12 3.12 0 1 1 0-6.24Z"/><path fill="currentColor" d="M30.05 26.81c-.956 0-1.732.776-1.732 1.734v32.754a1.733 1.733 0 0 0 3.466 0V28.542c0-.957-.776-1.732-1.733-1.732Z"/></symbol><symbol xmlns="http://www.w3.org/2000/svg" id="exit" fill="currentColor" viewBox="0 0 20 20"><path fill-rule="evenodd" d="M8.32 2h.93a.75.75 0 1 1 0 1.5h-.9c-1 0-1.7 0-2.24.04a2.9 2.9 0 0 0-1.1.26A2.75 2.75 0 0 0 3.8 5c-.13.25-.21.57-.26 1.11-.04.55-.04 1.25-.04 2.24v3.3c0 1 0 1.7.04 2.24.05.53.13.86.26 1.1A2.75 2.75 0 0 0 5 16.2c.25.13.57.21 1.11.26.55.04 1.25.04 2.24.04h.9a.75.75 0 0 1 0 1.5h-.93c-.96 0-1.72 0-2.33-.05a4.39 4.39 0 0 1-1.67-.41 4.25 4.25 0 0 1-1.86-1.86A4.38 4.38 0 0 1 2.05 14C2 13.4 2 12.64 2 11.68V8.32c0-.96 0-1.72.05-2.33.05-.63.16-1.17.41-1.67a4.25 4.25 0 0 1 1.86-1.86c.5-.25 1.04-.36 1.67-.41C6.6 2 7.36 2 8.32 2Zm5.9 4.97a.75.75 0 0 1 1.06 0l2.5 2.5a.75.75 0 0 1 0 1.06l-2.5 2.5a.75.75 0 1 1-1.06-1.06l1.22-1.22H8.75a.75.75 0 0 1 0-1.5h6.69l-1.22-1.22a.75.75 0 0 1 0-1.06Z" clip-rule="evenodd"/></symbol><symbol xmlns="http://www.w3.org/2000/svg" id="flip" fill="none" viewBox="0 0 60 74"><path fill="currentColor" d="M40 66.667h6.667V60H40v6.667Zm13.333-40H60V20h-6.667v6.667ZM0 13.333V60c0 3.667 3 6.667 6.667 6.667H20V60H6.667V13.333H20V6.667H6.667C3 6.667 0 9.667 0 13.333Zm53.333-6.666v6.666H60c0-3.666-3-6.666-6.667-6.666ZM26.667 73.333h6.666V0h-6.666v73.333Zm26.666-20H60v-6.666h-6.667v6.666ZM40 13.333h6.667V6.667H40v6.666ZM53.333 40H60v-6.667h-6.667V40Zm0 26.667C57 66.667 60 63.667 60 60h-6.667v6.667Z"/></symbol><symbol xmlns="http://www.w3.org/2000/svg" id="friends" fill="none" viewBox="0 0 20 20"><g fill="currentColor"><g fill-rule="evenodd" clip-rule="evenodd"><path d="M6.25 3.5a3 3 0 1 0 0 6 3 3 0 0 0 0-6zm-1.5 3a1.5 1.5 0 1 0 3 0 1.5 1.5 0 0 0-3 0zm-2.06 5.07c.96-.55 2.22-.82 3.56-.82s2.6.27 3.56.82c.98.56 1.69 1.47 1.69 2.68 0 .7-.28 1.3-.78 1.71-.48.39-1.1.54-1.72.54H3.5c-.61 0-1.24-.15-1.72-.54-.5-.4-.78-1-.78-1.71 0-1.21.71-2.12 1.69-2.68zm.75 1.3c-.65.37-.94.84-.94 1.38 0 .3.1.44.22.54.14.11.4.21.78.21H9c.39 0 .64-.1.78-.21.12-.1.22-.25.22-.54 0-.54-.29-1-.94-1.38-.66-.39-1.65-.62-2.81-.62s-2.15.23-2.81.62zM13.75 3.5a3 3 0 1 0 0 6 3 3 0 0 0 0-6zm-1.5 3a1.5 1.5 0 1 0 3 0 1.5 1.5 0 0 0-3 0z"/></g><path d="M13.75 12.25c-.23 0-.45.01-.68.03a.75.75 0 1 1-.14-1.49c.27-.03.54-.04.82-.04 1.34 0 2.6.27 3.56.82.98.56 1.69 1.47 1.69 2.68 0 .7-.28 1.3-.78 1.71-.48.39-1.1.54-1.72.54h-3a.75.75 0 0 1 0-1.5h3c.39 0 .64-.1.78-.21.12-.1.22-.25.22-.54 0-.54-.29-1-.94-1.38a5.77 5.77 0 0 0-2.81-.62z"/></g></symbol><symbol xmlns="http://www.w3.org/2000/svg" id="group" fill="none" viewBox="0 0 20 20"><path fill="currentColor" fill-rule="evenodd" d="M10 7.75a1.25 1.25 0 1 1 0-2.5 1.25 1.25 0 0 1 0 2.5zM7.25 6.5a2.75 2.75 0 1 1 5.5 0 2.75 2.75 0 0 1-5.5 0zm-.5 7.25c0-.42.23-.83.8-1.17A4.81 4.81 0 0 1 10 12c1.03 0 1.88.23 2.45.58.57.34.8.75.8 1.17 0 .3-.1.44-.22.54-.14.11-.4.21-.78.21h-4.5c-.39 0-.64-.1-.78-.21-.12-.1-.22-.25-.22-.54zM10 10.5c-1.22 0-2.37.27-3.23.8-.88.53-1.52 1.37-1.52 2.45 0 .7.28 1.3.78 1.71.48.39 1.1.54 1.72.54h4.5c.61 0 1.24-.15 1.72-.54.5-.4.78-1 .78-1.71 0-1.08-.64-1.92-1.52-2.45-.86-.53-2-.8-3.23-.8zm4-5.59c.06-.4.44-.7.85-.64a2.5 2.5 0 0 1-.35 4.98.75.75 0 0 1 0-1.5 1 1 0 0 0 .14-1.99.75.75 0 0 1-.63-.85zM15.76 10a.75.75 0 0 0 0 1.5c1.16 0 1.75.67 1.75 1.25 0 .22-.07.41-.19.55-.1.12-.24.2-.46.2a.75.75 0 0 0 0 1.5c1.43 0 2.15-1.21 2.15-2.25 0-1.71-1.6-2.75-3.25-2.75zM5 10.75a.75.75 0 0 0-.75-.75C2.61 10 1 11.04 1 12.75 1 13.79 1.72 15 3.15 15a.75.75 0 0 0 0-1.5.57.57 0 0 1-.47-.2.86.86 0 0 1-.18-.55c0-.58.6-1.25 1.75-1.25.41 0 .75-.34.75-.75zm.14-6.47a.75.75 0 0 1 .22 1.48 1 1 0 0 0 .14 1.99.75.75 0 1 1 0 1.5 2.5 2.5 0 0 1-.36-4.97z" clip-rule="evenodd"/></symbol><symbol xmlns="http://www.w3.org/2000/svg" id="message" viewBox="0 0 20 20"><g id="message_outline_20__Page-2" fill="currentColor" fill-rule="evenodd" stroke="currentColor" stroke-width="1"><g id="message_outline_20__message_outline_20"><path id="message_outline_20__Shape" d="M0 0h20v20H0z" opacity=".4"/><path id="message_outline_20__Icon-Color" fill="currentColor" fill-rule="nonzero" d="M6.83 15.75c.2-.23.53-.31.82-.2.81.3 1.7.45 2.6.45 3.77 0 6.75-2.7 6.75-6s-2.98-6-6.75-6S3.5 6.7 3.5 10c0 1.21.4 2.37 1.14 3.35.1.14.16.31.15.49-.04.76-.4 1.78-1.08 3.13 1.48-.11 2.5-.53 3.12-1.22ZM3.24 18.5a1.2 1.2 0 0 1-1.1-1.77A10.77 10.77 0 0 0 3.26 14 7 7 0 0 1 2 10c0-4.17 3.68-7.5 8.25-7.5S18.5 5.83 18.5 10s-3.68 7.5-8.25 7.5c-.92 0-1.81-.13-2.66-.4-1 .89-2.46 1.34-4.35 1.4Z"/></g></g></symbol><symbol xmlns="http://www.w3.org/2000/svg" id="photo" fill="none" viewBox="0 0 60 56"><path fill="currentColor" d="M30 19.83c-7.404 0-13.404 6-13.404 13.404s6 13.404 13.404 13.404 13.404-6 13.404-13.404S37.404 19.83 30 19.83Zm0 21.83c-4.596 0-8.425-3.83-8.425-8.426s3.83-8.426 8.425-8.426c4.596 0 8.426 3.83 8.426 8.426S34.596 41.66 30 41.66Z"/><path fill="currentColor" d="M50.936 10.128h-5.745l-.127-1.277c-.638-4.468-4.851-7.915-9.83-7.915h-8.809c-4.978 0-9.19 3.447-9.83 7.915l-.127 1.277h-4.213V8.85a2.56 2.56 0 0 0-2.553-2.553A2.56 2.56 0 0 0 7.15 8.851v1.404C3.064 11.021 0 14.34 0 18.425v28.341c0 4.596 4.085 8.298 9.064 8.298h41.872c4.979 0 9.064-3.702 9.064-8.298v-28.34c0-4.596-4.085-8.298-9.064-8.298Zm0 39.957H9.064c-2.298 0-4.085-1.532-4.085-3.319v-28.34c0-1.915 1.787-3.32 4.085-3.32h9.574c1.15 0 2.298-.893 2.426-2.17l.51-3.447c.256-2.042 2.298-3.574 4.852-3.574h8.808c2.426 0 4.596 1.532 4.851 3.574l.51 3.447c.129 1.277 1.15 2.17 2.427 2.17h7.914c2.298 0 4.085 1.532 4.085 3.32v28.34c0 1.915-1.787 3.32-4.085 3.32Z"/><path fill="currentColor" d="M48.383 18.426h-1.149a2.56 2.56 0 0 0-2.553 2.553 2.56 2.56 0 0 0 2.553 2.553h1.15a2.56 2.56 0 0 0 2.552-2.553 2.56 2.56 0 0 0-2.553-2.553Z"/></symbol><symbol xmlns="http://www.w3.org/2000/svg" id="rotate" fill="none" viewBox="0 0 60 66"><path fill="currentColor" d="M54.904 47.761a2.306 2.306 0 0 0-2.953.923l-.115.208a2.307 2.307 0 0 0 1.52 3.408 2.307 2.307 0 0 0 2.47-1.101l.116-.208a2.304 2.304 0 0 0-1.038-3.23Zm1.638-4.544a2.307 2.307 0 0 0 2.883-1.823v-.208a2.308 2.308 0 0 0-4.544-.807v.23a2.307 2.307 0 0 0 1.66 2.608ZM54.88 31.543v.231a2.307 2.307 0 0 0 4.544-.807v-.231a2.305 2.305 0 0 0-2.883-1.823 2.307 2.307 0 0 0-1.661 2.63ZM41.524 61.118a2.308 2.308 0 0 0-2.861-1.2h-.208a2.307 2.307 0 0 0 .628 4.474c.32.02.64-.026.941-.136h.208a2.308 2.308 0 0 0 1.292-3.138Zm-3.115-48.884h.208a2.307 2.307 0 1 0 1.569-4.337h-.208a2.307 2.307 0 1 0-1.569 4.337ZM51.928 23.47a2.307 2.307 0 0 0 2.976.923 2.308 2.308 0 0 0 1.015-3.253l-.115-.184a2.305 2.305 0 0 0-3.992 2.306l.116.208Zm-5.675-6.782a2.307 2.307 0 0 0 3.636-.939 2.305 2.305 0 0 0-.683-2.614l-.162-.139a2.307 2.307 0 0 0-3.368.462 2.307 2.307 0 0 0 .415 3.091l.162.139Zm3.137 38.918a2.306 2.306 0 0 0-3.114-.139l-.162.162a2.307 2.307 0 0 0-.415 3.068 2.308 2.308 0 0 0 3.368.461l.185-.138a2.308 2.308 0 0 0 .138-3.414Zm-21.985 10.38a2.309 2.309 0 0 0 2.56-2.307 2.308 2.308 0 0 0-2.075-2.307 25.376 25.376 0 0 1-1.57-50.383l-2.975 4.106a2.307 2.307 0 0 0 .53 3.207 2.307 2.307 0 0 0 3.207-.531l4.614-6.367a4.823 4.823 0 0 0 .807-3.668 4.89 4.89 0 0 0-2.099-3.115L23.784.377a2.326 2.326 0 0 0-2.538 3.898l3.483 2.307a29.99 29.99 0 0 0 2.676 59.404Z"/></symbol><symbol xmlns="http://www.w3.org/2000/svg" id="save" fill="none" viewBox="0 0 60 60"><g fill="currentColor" clip-path="url(#a)"><path d="M59.485 11.812 48.188.515A1.758 1.758 0 0 0 46.945 0H6.465A6.472 6.472 0 0 0 0 6.465v47.07C0 57.1 2.9 60 6.465 60h47.07C57.1 60 60 57.1 60 53.535v-40.48c0-.466-.185-.914-.515-1.243ZM41.422 3.516v14.246a2.953 2.953 0 0 1-2.95 2.949h-20.71a2.953 2.953 0 0 1-2.95-2.95V3.517h26.61Zm-26.61 52.968V38.473a2.953 2.953 0 0 1 2.95-2.95h24.476a2.953 2.953 0 0 1 2.95 2.95v18.011H14.811Zm41.672-2.949a2.953 2.953 0 0 1-2.949 2.95h-4.832V38.472c0-3.565-2.9-6.465-6.465-6.465H17.762a6.472 6.472 0 0 0-6.465 6.465v18.011H6.465a2.953 2.953 0 0 1-2.95-2.949V6.465a2.953 2.953 0 0 1 2.95-2.95h4.832v14.247c0 3.564 2.9 6.465 6.465 6.465h20.71c3.565 0 6.465-2.9 6.465-6.465V3.516h1.28l10.267 10.267v39.752Z"/><path d="M35.648 16.695c.971 0 1.758-.787 1.758-1.758V9.29a1.758 1.758 0 0 0-3.515 0v5.649c0 .97.787 1.757 1.757 1.757Z"/></g><defs><clipPath id="a"><path fill="currentColor" d="M0 0h60v60H0z"/></clipPath></defs></symbol><symbol xmlns="http://www.w3.org/2000/svg" xml:space="preserve" id="search" viewBox="0 0 612.08 612.08"><g><path d="M237.927 0C106.555 0 .035 106.52.035 237.893s106.52 237.893 237.893 237.893c50.518 0 97.368-15.757 135.879-42.597l.028-.028 176.432 176.433c3.274 3.274 8.48 3.358 11.839 0l47.551-47.551c3.274-3.274 3.106-8.703-.028-11.838L433.223 373.8c26.84-38.539 42.597-85.39 42.597-135.907C475.82 106.52 369.3 0 237.927 0zm0 419.811c-100.475 0-181.918-81.443-181.918-181.918S137.453 55.975 237.927 55.975s181.918 81.443 181.918 181.918-81.443 181.918-181.918 181.918z"/></g></symbol><symbol xmlns="http://www.w3.org/2000/svg" id="tools" fill="currentColor" viewBox="0 0 20 20"><path fill-rule="evenodd" d="m7.22 3.38.01-.03a4.15 4.15 0 0 1 .17-.48c.36-.82.95-1.29 1.86-1.36l.16-.01h1.21c1.05.03 1.74.6 2.1 1.7l.05.18.05.16c.01.07.03.14.06.2l.05.14.03.02.06-.02.11-.04.14-.06a5.36 5.36 0 0 1 .17-.08l.03-.01a4.23 4.23 0 0 1 .43-.15c.93-.27 1.68-.08 2.32.61l.1.13.72.88c.63.83.61 1.72 0 2.68l-.12.16-.1.14-.12.18-.06.1-.03.05v.02l.08.05.11.06.13.08c1.21.61 1.71 1.42 1.52 2.54l-.03.16-.22.92c-.13.59-.24.87-.67 1.25a2.13 2.13 0 0 1-1.05.52h-.01a3.92 3.92 0 0 1-.44.06l-.2.02h-.21l-.16.01-.16.02.01.13.01.08.03.15c.07.32.1.62.1.9a2.04 2.04 0 0 1-1.13 1.87l-.15.08-1.02.5c-.9.4-1.72.23-2.48-.47a3.93 3.93 0 0 1-.15-.14l-.13-.14-.11-.13a2.94 2.94 0 0 0-.15-.17l-.09-.08-.04-.04-.08.08-.09.1-.1.1c-.83.99-1.7 1.34-2.77.93l-.15-.06-.91-.45-.28-.13a1.78 1.78 0 0 1-.87-.92 2.15 2.15 0 0 1-.2-1.01v-.02c0-.19.02-.39.06-.6l.04-.2.04-.2.01-.15-.1-.02-.12-.01h-.15a4.14 4.14 0 0 1-.86-.1h-.01a2.05 2.05 0 0 1-1.61-1.53l-.05-.16-.25-1.1c-.2-1.03.2-1.82 1.19-2.41l.17-.1.15-.08.19-.1.13-.1v-.01l-.05-.1-.07-.1-.09-.13a5.2 5.2 0 0 1-.29-.42c-.54-.9-.53-1.72.05-2.52l.1-.14.72-.87c.68-.8 1.56-.96 2.64-.56l.18.08.16.07a2.9 2.9 0 0 0 .19.08l.12.04.03-.02.03-.07.04-.12.04-.15.04-.16Zm4.24.84.01.04.05.14a1.5 1.5 0 0 0 .75.83l.03.01a1.5 1.5 0 0 0 1.13.08l.06-.02a1.47 1.47 0 0 0 .07-.02l.12-.04.06-.03.13-.06.04-.01a2.7 2.7 0 0 1 .41-.16c.27-.08.41-.06.47-.04.06.01.16.05.32.22l.07.09.69.84c.13.18.15.29.15.35 0 .09-.03.27-.23.58l-.08.12-.08.1a4.4 4.4 0 0 0-.18.27l-.02.02-.06.1v.01l-.01.02-.03.05a1.5 1.5 0 0 0-.18 1.06v.01a1.5 1.5 0 0 0 .65.96l.08.05.05.04.1.06.07.03.13.08.04.01c.45.24.62.43.67.52.04.06.09.16.04.42l-.02.12-.2.89c-.07.28-.1.35-.11.37h-.01a.97.97 0 0 1-.1.11.65.65 0 0 1-.36.16 2.36 2.36 0 0 1-.25.04h-.16l-.13.01h-.08a4.55 4.55 0 0 0-.28.02l-.15.02a1.5 1.5 0 0 0-1.32 1.63l.01.12v.07l.02.09.01.06.03.15v.05c.06.23.07.42.07.55 0 .2-.04.3-.07.35a.72.72 0 0 1-.28.24l-.1.05-.98.47c-.2.1-.32.09-.38.07-.08-.01-.23-.06-.46-.28a2.38 2.38 0 0 1-.08-.07l-.1-.1-.09-.11a4.39 4.39 0 0 0-.21-.24l-.02-.01-.08-.09a1.43 1.43 0 0 0-.04-.03l-.04-.04a1.5 1.5 0 0 0-2.05.01l-.08.08a1.43 1.43 0 0 0-.04.04l-.1.1a1.53 1.53 0 0 0-.04.04l-.1.12-.03.03c-.31.37-.53.5-.64.53-.08.03-.19.05-.42-.03l-.1-.04-.86-.42-.24-.12a1.19 1.19 0 0 1-.13-.08v-.01a1.08 1.08 0 0 1-.09-.15.67.67 0 0 1-.06-.34l.04-.36.04-.18a4.38 4.38 0 0 0 .06-.35l.01-.15a1.5 1.5 0 0 0-.43-1.22 1.5 1.5 0 0 0-.86-.43h-.1a1.4 1.4 0 0 0-.06-.02h-.13a1.54 1.54 0 0 0-.06-.01h-.19a2.66 2.66 0 0 1-.55-.07c-.22-.05-.3-.11-.35-.15a.7.7 0 0 1-.17-.32L3.26 12l-.24-1.05c-.04-.22 0-.33.02-.38.04-.08.15-.23.46-.42l.13-.08.12-.06a4.43 4.43 0 0 0 .31-.18l.14-.09a1.5 1.5 0 0 0 .65-.94v-.02a1.5 1.5 0 0 0-.17-1.07l-.05-.09a1.49 1.49 0 0 0-.04-.06l-.07-.11a1.5 1.5 0 0 0-.04-.06l-.09-.12a1.52 1.52 0 0 0-.02-.03c-.31-.4-.37-.65-.38-.76 0-.06 0-.18.15-.4L4.2 6l.68-.83c.16-.18.27-.21.33-.23.1-.02.28-.03.63.1l.13.06.13.05a4.42 4.42 0 0 0 .31.13l.12.04a1.5 1.5 0 0 0 1.14-.05l.03-.02a1.5 1.5 0 0 0 .76-.82l.03-.08.02-.07.04-.12.02-.06.04-.14.01-.04.03-.12.12-.32c.1-.23.19-.32.24-.36.04-.03.13-.09.34-.1l.1-.01h1.14c.24.01.34.07.39.11.07.06.2.2.3.54l.05.14.03.13.1.3ZM10 11.5a1.5 1.5 0 1 0 0-3 1.5 1.5 0 0 0 0 3Zm0 1.5a3 3 0 1 0 0-6 3 3 0 0 0 0 6Z" clip-rule="evenodd"/></symbol></svg>