<svg width="25" height="25" viewBox="0 0 25 25" fill="none" xmlns="http://www.w3.org/2000/svg">
<path d="M21.3232 17.3828C20.7597 16.4062 19.9218 13.6846 19.9218 10.1562C19.9218 8.18785 19.1399 6.30006 17.748 4.90819C16.3561 3.51632 14.4683 2.73438 12.4999 2.73438C10.5315 2.73438 8.64374 3.51632 7.25187 4.90819C5.85999 6.30006 5.07805 8.18785 5.07805 10.1562C5.07805 13.6846 4.23918 16.4062 3.67571 17.3779C3.57177 17.556 3.51664 17.7583 3.51588 17.9644C3.51512 18.1706 3.56876 18.3733 3.67138 18.5521C3.77401 18.7309 3.92198 18.8795 4.10038 18.9828C4.27877 19.0861 4.48127 19.1406 4.68742 19.1406H9.00676C9.10424 19.9988 9.51421 20.7911 10.1585 21.3663C10.8027 21.9415 11.6362 22.2595 12.4999 22.2595C13.3636 22.2595 14.1971 21.9415 14.8414 21.3663C15.4856 20.7911 15.8956 19.9988 15.9931 19.1406H20.3124C20.5178 19.1399 20.7193 19.0852 20.8969 18.9821C21.0745 18.8789 21.2218 18.7309 21.3242 18.5529C21.4266 18.3749 21.4804 18.1731 21.4802 17.9677C21.48 17.7624 21.4258 17.5607 21.3232 17.3828ZM12.4999 21.4844C11.8424 21.4843 11.207 21.2473 10.71 20.8169C10.213 20.3865 9.88779 19.7914 9.79387 19.1406H15.206C15.1121 19.7914 14.7868 20.3865 14.2898 20.8169C13.7928 21.2473 13.1574 21.4843 12.4999 21.4844ZM20.6493 18.1641C20.6159 18.2237 20.5672 18.2733 20.5081 18.3076C20.449 18.342 20.3818 18.3599 20.3134 18.3594H4.68742C4.61907 18.3599 4.55184 18.342 4.49275 18.3076C4.43366 18.2733 4.38487 18.2237 4.35149 18.1641C4.3172 18.1047 4.29915 18.0373 4.29915 17.9688C4.29915 17.9002 4.3172 17.8328 4.35149 17.7734C5.07805 16.5205 5.8593 13.6055 5.8593 10.1562C5.8593 8.39505 6.55893 6.70598 7.80429 5.46062C9.04965 4.21526 10.7387 3.51562 12.4999 3.51562C14.2611 3.51562 15.9502 4.21526 17.1956 5.46062C18.4409 6.70598 19.1405 8.39505 19.1405 10.1562C19.1405 13.6045 19.9218 16.5205 20.6484 17.7734C20.6828 17.8327 20.701 17.9001 20.7012 17.9686C20.7014 18.0372 20.6835 18.1046 20.6493 18.1641Z" fill="white"/>
</svg>
