<svg width="15" height="15" viewBox="0 0 15 15" fill="none" xmlns="http://www.w3.org/2000/svg">
<path d="M1.12489 0.701232C1.07138 0.641551 0.996347 0.605573 0.916306 0.601212C0.836265 0.596851 0.75777 0.624465 0.698089 0.677979C0.638408 0.731493 0.60243 0.806524 0.598069 0.886564C0.593708 0.966605 0.621322 1.0451 0.674836 1.10478L2.08501 2.65222C1.50494 3.56409 1.19782 4.62286 1.1999 5.70359C1.1999 8.41367 0.556322 10.5042 0.122769 11.2505C0.0429349 11.3873 0.000589105 11.5427 6.10235e-06 11.701C-0.0005769 11.8594 0.0406237 12.0151 0.119449 12.1524C0.198274 12.2897 0.311934 12.4038 0.448956 12.4832C0.585979 12.5626 0.741514 12.6044 0.899863 12.6044H4.21752C4.29239 13.2636 4.60728 13.8721 5.10214 14.314C5.597 14.7558 6.23719 15 6.90059 15C7.56399 15 8.20418 14.7558 8.69904 14.314C9.1939 13.8721 9.5088 13.2636 9.58367 12.6044H11.1319L12.6763 14.3064C12.7026 14.3361 12.7346 14.3603 12.7704 14.3775C12.8061 14.3948 12.845 14.4047 12.8846 14.4069C12.9243 14.409 12.9639 14.4032 13.0013 14.3899C13.0388 14.3766 13.0731 14.356 13.1025 14.3293C13.1319 14.3026 13.1557 14.2703 13.1725 14.2344C13.1893 14.1984 13.1989 14.1595 13.2005 14.1198C13.2022 14.0801 13.1959 14.0405 13.1822 14.0033C13.1684 13.966 13.1474 13.9319 13.1203 13.9028L1.12489 0.701232ZM6.90059 14.4046C6.39559 14.4046 5.90751 14.2226 5.52578 13.892C5.14405 13.5613 4.89423 13.1042 4.82209 12.6044H8.97909C8.90695 13.1042 8.65713 13.5613 8.2754 13.892C7.89367 14.2226 7.40559 14.4046 6.90059 14.4046ZM0.899863 12.0044C0.847459 12.0048 0.795913 11.991 0.750642 11.9646C0.70537 11.9382 0.668043 11.9001 0.642582 11.8543C0.616248 11.8087 0.602385 11.757 0.602385 11.7043C0.602385 11.6517 0.616248 11.5999 0.642582 11.5543C1.1999 10.5919 1.79997 8.35291 1.79997 5.70359C1.79826 4.79307 2.04181 3.8989 2.50506 3.11502L10.5865 12.0044H0.899863ZM13.2426 11.0682C13.2078 11.0821 13.1706 11.0893 13.1331 11.0892C13.0728 11.0892 13.014 11.071 12.9642 11.037C12.9144 11.003 12.8761 10.9548 12.8541 10.8987C12.3192 9.54181 12.0012 7.59982 12.0012 5.70359C12.0014 4.8115 11.7677 3.93496 11.3233 3.16144C10.8789 2.38792 10.2394 1.74448 9.46865 1.29534C8.69788 0.846191 7.82279 0.607049 6.93073 0.601778C6.03866 0.596508 5.16081 0.825293 4.38479 1.2653C4.35056 1.285 4.31278 1.29777 4.27362 1.30287C4.23445 1.30797 4.19467 1.30531 4.15653 1.29503C4.1184 1.28476 4.08266 1.26708 4.05136 1.24299C4.02006 1.21891 3.99381 1.18889 3.97411 1.15466C3.95441 1.12043 3.94164 1.08266 3.93654 1.04349C3.93144 1.00433 3.9341 0.964546 3.94438 0.926411C3.95465 0.888276 3.97233 0.852538 3.99642 0.821238C4.0205 0.789938 4.05052 0.763688 4.08475 0.743987C4.95212 0.251247 5.9336 -0.00526322 6.93114 8.18561e-05C7.92868 0.00542693 8.90735 0.27244 9.76939 0.774447C10.6314 1.27645 11.3466 1.99588 11.8436 2.86084C12.3405 3.72581 12.6018 4.70603 12.6013 5.70359C12.6013 8.40767 13.2209 10.1959 13.4106 10.6797C13.4396 10.7537 13.438 10.8362 13.4062 10.909C13.3745 10.9819 13.3151 11.0391 13.2411 11.0682H13.2426Z" fill="white"/>
</svg>
