<svg width="15" height="15" viewBox="0 0 15 15" fill="none" xmlns="http://www.w3.org/2000/svg">
<g clip-path="url(#clip0_174_537)">
<path d="M3.42857 15C3.03572 15 2.69929 14.86 2.41929 14.58C2.13929 14.3 1.99953 13.9638 2 13.5714V6.42857C2 6.03571 2.14 5.69929 2.42 5.41929C2.7 5.13929 3.03619 4.99952 3.42857 5H4.14286V3.57143C4.14286 2.58333 4.49119 1.74095 5.18786 1.04429C5.88452 0.347619 6.72667 -0.000475703 7.71429 4.879e-07C8.70238 4.879e-07 9.54476 0.348334 10.2414 1.045C10.9381 1.74167 11.2862 2.58381 11.2857 3.57143V5H12C12.3929 5 12.7293 5.14 13.0093 5.42C13.2893 5.7 13.429 6.03619 13.4286 6.42857V13.5714C13.4286 13.9643 13.2886 14.3007 13.0086 14.5807C12.7286 14.8607 12.3924 15.0005 12 15H3.42857ZM3.42857 13.5714H12V6.42857H3.42857V13.5714ZM7.71429 11.4286C8.10714 11.4286 8.44357 11.2886 8.72357 11.0086C9.00357 10.7286 9.14333 10.3924 9.14286 10C9.14286 9.60714 9.00286 9.27071 8.72286 8.99071C8.44286 8.71071 8.10667 8.57095 7.71429 8.57143C7.32143 8.57143 6.985 8.71143 6.705 8.99143C6.425 9.27143 6.28524 9.60762 6.28572 10C6.28572 10.3929 6.42572 10.7293 6.70572 11.0093C6.98571 11.2893 7.32191 11.429 7.71429 11.4286ZM5.57143 5H9.85714V3.57143C9.85714 2.97619 9.64881 2.47024 9.23214 2.05357C8.81548 1.63691 8.30952 1.42857 7.71429 1.42857C7.11905 1.42857 6.6131 1.63691 6.19643 2.05357C5.77976 2.47024 5.57143 2.97619 5.57143 3.57143V5Z" fill="white"/>
</g>
<defs>
<clipPath id="clip0_174_537">
<rect width="15" height="15" fill="white"/>
</clipPath>
</defs>
</svg>
