<svg width="61" height="74" viewBox="0 0 61 74" fill="none" xmlns="http://www.w3.org/2000/svg">
<path d="M40.2755 26.8105C39.3184 26.8105 38.5425 27.5864 38.5425 28.5435V61.2975C38.5425 62.2542 39.3184 63.0305 40.2755 63.0305C41.2329 63.0305 42.0086 62.2542 42.0086 61.2975V28.5435C42.0086 27.5864 41.2329 26.8105 40.2755 26.8105ZM19.826 26.8105C18.8688 26.8105 18.0929 27.5864 18.0929 28.5435V61.2975C18.0929 62.2542 18.8688 63.0305 19.826 63.0305C20.7833 63.0305 21.559 62.2542 21.559 61.2975V28.5435C21.559 27.5864 20.7833 26.8105 19.826 26.8105Z" fill="currentColor"/>
<path d="M4.92201 22.0305V64.7284C4.92201 67.2522 5.84744 69.6221 7.464 71.3225C8.26 72.1661 9.21961 72.8387 10.2842 73.299C11.3489 73.7594 12.4962 73.9979 13.6561 74H46.4454C47.6053 73.998 48.7527 73.7596 49.8173 73.2992C50.882 72.8389 51.8416 72.1662 52.6375 71.3225C54.2542 69.6221 55.1795 67.2522 55.1795 64.7284V22.0305C58.393 21.1775 60.4754 18.073 60.0456 14.7756C59.6149 11.4787 56.8062 9.0126 53.4809 9.01191H44.6081V6.84564C44.6131 5.94384 44.4389 5.05003 44.0956 4.21611C43.7523 3.38218 43.2468 2.62476 42.6083 1.98782C41.9698 1.35094 41.211 0.847274 40.3762 0.50607C39.5413 0.164865 38.647 -0.00707845 37.7452 0.000224643H22.3565C21.4546 -0.00710146 20.5603 0.164831 19.7254 0.506036C18.8905 0.847241 18.1317 1.35092 17.4931 1.98782C16.8547 2.62476 16.3492 3.38218 16.0059 4.21611C15.6626 5.05003 15.4884 5.94384 15.4934 6.84564V9.01191H6.62071C3.2954 9.0126 0.486701 11.4787 0.0560468 14.7756C-0.373741 18.073 1.70848 21.1775 4.92201 22.0305ZM46.4454 70.534H13.6562C10.6931 70.534 8.38804 67.9885 8.38804 64.7284V22.1828H51.7134V64.7284C51.7134 67.9887 49.4085 70.534 46.4454 70.534ZM18.9594 6.84564C18.9538 6.39884 19.0379 5.95546 19.2069 5.5418C19.3759 5.12815 19.6262 4.75266 19.9431 4.43761C20.2599 4.12239 20.6367 3.87398 21.0513 3.70713C21.4658 3.54027 21.9097 3.45836 22.3565 3.46626H37.7452C38.192 3.45836 38.6358 3.54027 39.0504 3.70713C39.4649 3.87398 39.8418 4.12239 40.1586 4.43761C40.4754 4.75264 40.7258 5.12813 40.8947 5.54179C41.0637 5.95545 41.1478 6.39884 41.142 6.84564V9.01191H18.9594V6.84564ZM6.62071 12.4779H53.4813C55.2041 12.4779 56.6007 13.8746 56.6007 15.5974C56.6007 17.3202 55.2041 18.7168 53.4813 18.7168H6.62054C4.89775 18.7168 3.50111 17.3202 3.50111 15.5974C3.50111 13.8746 4.89792 12.4779 6.62071 12.4779Z" fill="currentColor"/>
<path d="M30.0508 26.8105C29.0936 26.8105 28.3177 27.5864 28.3177 28.5435V61.2975C28.3177 62.2542 29.0936 63.0305 30.0508 63.0305C31.0081 63.0305 31.7838 62.2542 31.7838 61.2975V28.5435C31.7838 27.5864 31.0081 26.8105 30.0508 26.8105Z" fill="currentColor"/>
</svg>
