<svg width="15" height="15" viewBox="0 0 15 15" fill="none" xmlns="http://www.w3.org/2000/svg">
<path d="M10 1.75V3H12.25C12.4489 3 12.6397 3.07902 12.7803 3.21967C12.921 3.36032 13 3.55109 13 3.75C13 3.94891 12.921 4.13968 12.7803 4.28033C12.6397 4.42098 12.4489 4.5 12.25 4.5H1.75C1.55109 4.5 1.36032 4.42098 1.21967 4.28033C1.07902 4.13968 1 3.94891 1 3.75C1 3.55109 1.07902 3.36032 1.21967 3.21967C1.36032 3.07902 1.55109 3 1.75 3H4V1.75C4 0.784 4.784 0 5.75 0H8.25C9.216 0 10 0.784 10 1.75ZM3.496 6.675L4.156 13.275C4.1622 13.3367 4.19112 13.3939 4.23714 13.4355C4.28315 13.4771 4.34298 13.5001 4.405 13.5H9.595C9.65702 13.5001 9.71685 13.4771 9.76286 13.4355C9.80888 13.3939 9.8378 13.3367 9.844 13.275L10.504 6.675C10.5288 6.48127 10.6282 6.30486 10.781 6.18328C10.9339 6.06169 11.1281 6.00453 11.3225 6.02394C11.5168 6.04334 11.6959 6.13779 11.8217 6.2872C11.9475 6.43661 12.01 6.6292 11.996 6.824L11.336 13.424C11.2933 13.856 11.0914 14.2566 10.7696 14.5479C10.4478 14.8392 10.0291 15.0004 9.595 15H4.405C3.97121 14.9999 3.5529 14.8388 3.23121 14.5478C2.90952 14.2567 2.70738 13.8566 2.664 13.425L2.004 6.825C1.99148 6.7257 1.99895 6.6249 2.02599 6.52853C2.05303 6.43217 2.09908 6.34219 2.16144 6.2639C2.22379 6.18561 2.30118 6.12059 2.38905 6.07268C2.47692 6.02476 2.5735 5.99492 2.67308 5.98491C2.77266 5.9749 2.87325 5.98492 2.9689 6.01438C3.06455 6.04385 3.15333 6.09216 3.23002 6.15647C3.30671 6.22078 3.36975 6.29979 3.41543 6.38884C3.46111 6.4779 3.48851 6.57519 3.496 6.675ZM5.5 1.75V3H8.5V1.75C8.5 1.6837 8.47366 1.62011 8.42678 1.57322C8.37989 1.52634 8.3163 1.5 8.25 1.5H5.75C5.6837 1.5 5.62011 1.52634 5.57322 1.57322C5.52634 1.62011 5.5 1.6837 5.5 1.75Z" fill="#F95758"/>
</svg>
