<svg width="25" height="25" viewBox="0 0 25 25" fill="none" xmlns="http://www.w3.org/2000/svg">
<path d="M18.75 10.4167H13.5417" stroke="white" stroke-width="1.5" stroke-linecap="round"/>
<path d="M10.4167 3.125H17.1875C17.6709 3.125 17.9136 3.125 18.1167 3.15208C18.7985 3.242 19.4315 3.55429 19.9178 4.04055C20.4041 4.52681 20.7164 5.15989 20.8063 5.84167C20.8334 6.04479 20.8334 6.2875 20.8334 6.77083" stroke="white" stroke-width="1.5"/>
<path d="M22.9167 12.2896C22.9167 9.54792 22.9167 8.17604 22.1146 7.28542C22.041 7.20321 21.9631 7.12497 21.8813 7.05104C20.9906 6.25 19.6188 6.25 16.8771 6.25H16.4875C15.2865 6.25 14.6854 6.25 14.125 6.09062C13.8175 6.00271 13.5211 5.87968 13.2417 5.72396C12.7333 5.44167 12.3083 5.01562 11.4583 4.16667L10.8854 3.59375C10.6 3.30833 10.4583 3.16667 10.3083 3.04167C9.6632 2.50691 8.87182 2.17911 8.03751 2.10104C7.84376 2.08333 7.64168 2.08333 7.23959 2.08333C6.3198 2.08333 5.86043 2.08333 5.47709 2.15625C4.65401 2.31169 3.89688 2.7116 3.3045 3.3038C2.71211 3.89601 2.31196 4.65301 2.15626 5.47604C2.08334 5.86042 2.08334 6.32083 2.08334 7.23958M22.9073 16.6667C22.8698 19.25 22.6781 20.7135 21.6958 21.6958C20.4761 22.9167 18.5115 22.9167 14.5833 22.9167H10.4167C6.48855 22.9167 4.52397 22.9167 3.30418 21.6958C2.08334 20.476 2.08334 18.5115 2.08334 14.5833V11.4583" stroke="white" stroke-width="1.5" stroke-linecap="round"/>
</svg>
