<svg width="60" height="74" viewBox="0 0 60 74" fill="none" xmlns="http://www.w3.org/2000/svg">
<path d="M40 66.6667H46.6667V60H40V66.6667ZM53.3333 26.6667H60V20H53.3333V26.6667ZM0 13.3333V60C0 63.6667 3 66.6667 6.66667 66.6667H20V60H6.66667V13.3333H20V6.66667H6.66667C3 6.66667 0 9.66667 0 13.3333ZM53.3333 6.66667V13.3333H60C60 9.66667 57 6.66667 53.3333 6.66667ZM26.6667 73.3333H33.3333V0H26.6667V73.3333ZM53.3333 53.3333H60V46.6667H53.3333V53.3333ZM40 13.3333H46.6667V6.66667H40V13.3333ZM53.3333 40H60V33.3333H53.3333V40ZM53.3333 66.6667C57 66.6667 60 63.6667 60 60H53.3333V66.6667Z" fill="currentColor"/>
</svg>
