<svg width="23" height="23" viewBox="0 0 23 23" fill="none" xmlns="http://www.w3.org/2000/svg">
<path d="M11.5 16.7083V10.4583" stroke="white" stroke-width="1.5" stroke-linecap="round"/>
<path d="M11.5 6.29167C12.0753 6.29167 12.5416 6.75804 12.5416 7.33333C12.5416 7.90863 12.0753 8.375 11.5 8.375C10.9247 8.375 10.4583 7.90863 10.4583 7.33333C10.4583 6.75804 10.9247 6.29167 11.5 6.29167Z" fill="white"/>
<path d="M6.29165 2.47709C7.87448 1.56136 9.67134 1.08052 11.5 1.08334C17.2531 1.08334 21.9166 5.74688 21.9166 11.5C21.9166 17.2531 17.2531 21.9167 11.5 21.9167C5.74686 21.9167 1.08331 17.2531 1.08331 11.5C1.08331 9.60313 1.5906 7.82292 2.47706 6.29167" stroke="white" stroke-width="1.5" stroke-linecap="round"/>
</svg>
