<svg width="26" height="25" viewBox="0 0 26 25" fill="none" xmlns="http://www.w3.org/2000/svg">
<path d="M22.675 3.45C23.6838 4.46237 24.2502 5.83331 24.2502 7.2625C24.2502 8.69169 23.6838 10.0626 22.675 11.075L20.7625 12.975C19.3625 14.375 17.3875 14.8125 15.5875 14.3375L18.8625 11.075L19.8125 10.1125L20.7625 9.1625C21.8125 8.1125 21.8125 6.4125 20.7625 5.3625C20.5147 5.11003 20.219 4.90949 19.8928 4.77259C19.5665 4.63569 19.2163 4.56518 18.8625 4.56518C18.5087 4.56518 18.1585 4.63569 17.8322 4.77259C17.506 4.90949 17.2103 5.11003 16.9625 5.3625L16 6.3125L11.775 10.5375C11.3125 8.7375 11.75 6.7625 13.15 5.3625L15.05 3.45C16.0624 2.4412 17.4333 1.87476 18.8625 1.87476C20.2917 1.87476 21.6626 2.4412 22.675 3.45ZM11.2375 16.7875L17.9125 10.1125C18.4375 9.5875 18.4375 8.7375 17.9125 8.2125C17.3625 7.675 16.5 7.725 16 8.2125L9.3375 14.8875C8.8125 15.4125 8.8125 16.2625 9.3375 16.7875C9.8875 17.325 10.75 17.275 11.2375 16.7875ZM10.2875 19.65L15.4625 14.4625C15.9375 16.2625 15.5 18.2375 14.1 19.6375L12.2 21.55C11.1876 22.5588 9.81669 23.1252 8.3875 23.1252C6.95831 23.1252 5.58737 22.5588 4.575 21.55C3.5662 20.5376 2.99976 19.1667 2.99976 17.7375C2.99976 16.3083 3.5662 14.9374 4.575 13.925L6.4875 12.025C7.8875 10.625 9.8625 10.1875 11.6625 10.65L6.4875 15.8375C5.425 16.8875 5.425 18.5875 6.4875 19.65C7.5375 20.7 9.2375 20.7 10.2875 19.65Z" fill="white"/>
</svg>
