<svg width="26" height="25" viewBox="0 0 26 25" fill="none" xmlns="http://www.w3.org/2000/svg">
<path d="M7.79166 17.7083C7.21874 17.7083 6.72812 17.5042 6.31978 17.0958C5.91145 16.6875 5.70763 16.1972 5.70832 15.625V4.16667C5.70832 3.59375 5.91249 3.10313 6.32082 2.69479C6.72916 2.28646 7.21944 2.08264 7.79166 2.08333H12.1406C12.4184 2.08333 12.6833 2.13542 12.9354 2.23958C13.1875 2.34375 13.4087 2.49132 13.5989 2.68229L15.0833 4.16667H22.375C22.9479 4.16667 23.4385 4.37083 23.8469 4.77917C24.2552 5.1875 24.459 5.67778 24.4583 6.25V15.625C24.4583 16.1979 24.2542 16.6885 23.8458 17.0969C23.4375 17.5052 22.9472 17.709 22.375 17.7083H7.79166ZM3.62499 21.875C3.05207 21.875 2.56145 21.6708 2.15312 21.2625C1.74478 20.8542 1.54096 20.3639 1.54166 19.7917V7.29167C1.54166 6.99653 1.64166 6.74896 1.84166 6.54896C2.04166 6.34896 2.28888 6.24931 2.58332 6.25C2.87846 6.25 3.12603 6.35 3.32603 6.55C3.52603 6.75 3.62569 6.99722 3.62499 7.29167V19.7917H20.2917C20.5868 19.7917 20.8344 19.8917 21.0344 20.0917C21.2344 20.2917 21.334 20.5389 21.3333 20.8333C21.3333 21.1285 21.2333 21.376 21.0333 21.576C20.8333 21.776 20.5861 21.8757 20.2917 21.875H3.62499ZM10.9427 13.5417H19.2239C19.4496 13.5417 19.6104 13.4462 19.7062 13.2552C19.8021 13.0642 19.7802 12.8819 19.6406 12.7083L17.1146 9.40104C17.0104 9.26215 16.8715 9.19271 16.6979 9.19271C16.5243 9.19271 16.3854 9.26215 16.2812 9.40104L14.3021 11.9792L13.1042 10.4167C13 10.2778 12.8611 10.2083 12.6875 10.2083C12.5139 10.2083 12.375 10.2778 12.2708 10.4167L10.526 12.7083C10.3871 12.8819 10.3653 13.0642 10.4604 13.2552C10.5555 13.4462 10.7163 13.5417 10.9427 13.5417Z" fill="white"/>
</svg>
