<svg width="30" height="30" viewBox="0 0 30 30" fill="none" xmlns="http://www.w3.org/2000/svg">
<path d="M27.6024 17.6028C26.8453 20.0742 25.328 22.2439 23.2665 23.8032C21.4565 25.1654 19.3026 25.9963 17.0467 26.2024C14.7907 26.4086 12.5219 25.9819 10.495 24.9702C8.46807 23.9586 6.76321 22.4021 5.57178 20.4753C4.38035 18.5486 3.74951 16.3279 3.75006 14.0625C3.74191 11.4184 4.60149 8.84457 6.19693 6.73597C7.75616 4.6744 9.92587 3.15712 12.3973 2.40003C12.5602 2.34988 12.7337 2.34508 12.8991 2.38614C13.0645 2.42721 13.2156 2.51259 13.3361 2.63311C13.4566 2.75362 13.542 2.90471 13.5831 3.07013C13.6242 3.23554 13.6194 3.40902 13.5692 3.57191C13.0288 5.35952 12.9835 7.26026 13.4381 9.07159C13.8927 10.8829 14.8302 12.537 16.1508 13.8575C17.4713 15.178 19.1254 16.1156 20.9367 16.5702C22.748 17.0248 24.6488 16.9795 26.4364 16.4391C26.5993 16.3889 26.7727 16.3841 26.9382 16.4252C27.1036 16.4663 27.2547 16.5517 27.3752 16.6722C27.4957 16.7927 27.5811 16.9438 27.6221 17.1092C27.6632 17.2746 27.6584 17.4481 27.6083 17.611L27.6024 17.6028Z" fill="white"/>
</svg>
