<svg width="60" height="56" viewBox="0 0 60 56" fill="none" xmlns="http://www.w3.org/2000/svg">
<path d="M30.0001 19.8298C22.5958 19.8298 16.5958 25.8298 16.5958 33.2341C16.5958 40.6384 22.5958 46.6383 30.0001 46.6383C37.4044 46.6383 43.4043 40.6384 43.4043 33.2341C43.4043 25.8298 37.4044 19.8298 30.0001 19.8298ZM30.0001 41.6596C25.4043 41.6596 21.5745 37.8298 21.5745 33.2341C21.5745 28.6383 25.4043 24.8085 30.0001 24.8085C34.5958 24.8085 38.4256 28.6383 38.4256 33.2341C38.4256 37.8298 34.5958 41.6596 30.0001 41.6596Z" fill="currentColor"/>
<path d="M50.9362 10.1276H45.1915L45.0638 8.85099C44.4256 4.38294 40.2128 0.936127 35.2341 0.936127H26.4255C21.4468 0.936127 17.2341 4.38294 16.5958 8.85099L16.4681 10.1276H12.2553V8.85111C12.2553 7.44689 11.1064 6.29795 9.70217 6.29795C8.29796 6.29795 7.14902 7.44689 7.14902 8.85111V10.2553C3.06383 11.0213 -9.53674e-07 14.3405 -9.53674e-07 18.4256V46.766C-9.53674e-07 51.3618 4.08507 55.0639 9.06379 55.0639H50.9362C55.9149 55.0639 60 51.3618 60 46.766V18.4256C60.0001 13.8298 55.9149 10.1276 50.9362 10.1276ZM50.9362 50.0851H9.06391C6.76604 50.0851 4.97885 48.5532 4.97885 46.766V18.4256C4.97885 16.5107 6.76604 15.1065 9.06391 15.1065H18.6384C19.7873 15.1065 20.9363 14.2128 21.064 12.9363L21.5746 9.48948C21.8299 7.44689 23.8725 5.91497 26.4257 5.91497H35.2342C37.6598 5.91497 39.8299 7.44689 40.0852 9.48948L40.5959 12.9363C40.7236 14.2129 41.7448 15.1065 43.0215 15.1065H50.9362C53.2341 15.1065 55.0213 16.6384 55.0213 18.4256V46.766C55.0214 48.6809 53.2341 50.0851 50.9362 50.0851Z" fill="currentColor"/>
<path d="M48.3831 18.4256H47.2341C45.8299 18.4256 44.681 19.5745 44.681 20.9787C44.681 22.383 45.8299 23.5319 47.2341 23.5319H48.3831C49.7873 23.5319 50.9362 22.383 50.9362 20.9787C50.9362 19.5745 49.7873 18.4256 48.3831 18.4256Z" fill="currentColor"/>
</svg>
