<svg width="15" height="15" viewBox="0 0 15 15" fill="none" xmlns="http://www.w3.org/2000/svg">
<g clip-path="url(#clip0_175_4025)">
<path d="M1.61771 14.4643L13.4034 14.4643C13.9952 14.4643 14.4749 13.9846 14.4749 13.3929L14.4749 1.60714C14.4749 1.01541 13.9952 0.535716 13.4034 0.535716L1.61771 0.535716C1.02598 0.535716 0.546283 1.01541 0.546283 1.60714L0.546283 13.3929C0.546283 13.9846 1.02598 14.4643 1.61771 14.4643Z" stroke="white" stroke-linecap="round" stroke-linejoin="round"/>
<path d="M9.91064 6.96429C10.9462 6.96429 11.7856 6.12482 11.7856 5.08929C11.7856 4.05375 10.9462 3.21429 9.91064 3.21429C8.87511 3.21429 8.03564 4.05375 8.03564 5.08929C8.03564 6.12482 8.87511 6.96429 9.91064 6.96429Z" stroke="white" stroke-linecap="round" stroke-linejoin="round"/>
<path d="M10.0714 14.4643C9.72636 12.6268 8.73973 10.9716 7.2875 9.79414C5.83527 8.61666 4.01192 7.99345 2.14279 8.03572C1.60351 8.03427 1.06534 8.0845 0.535645 8.18571" stroke="white" stroke-linecap="round" stroke-linejoin="round"/>
<path d="M14.4643 10.6179C13.6013 10.3264 12.6965 10.1781 11.7857 10.1786C10.6328 10.1761 9.49153 10.4094 8.43213 10.8643" stroke="white" stroke-linecap="round" stroke-linejoin="round"/>
</g>
<defs>
<clipPath id="clip0_175_4025">
<rect width="15" height="15" fill="white"/>
</clipPath>
</defs>
</svg>
