<svg width="26" height="25" viewBox="0 0 26 25" fill="none" xmlns="http://www.w3.org/2000/svg">
<path d="M12.7273 13C14.0534 13 15.3251 12.4732 16.2628 11.5355C17.2005 10.5979 17.7273 9.32608 17.7273 8C17.7273 6.67392 17.2005 5.40215 16.2628 4.46447C15.3251 3.52678 14.0534 3 12.7273 3C11.4012 3 10.1294 3.52678 9.19174 4.46447C8.25406 5.40215 7.72727 6.67392 7.72727 8C7.72727 9.32608 8.25406 10.5979 9.19174 11.5355C10.1294 12.4732 11.4012 13 12.7273 13ZM7.72727 14.8182C7.00395 14.8182 6.31026 15.1055 5.7988 15.617C5.28734 16.1284 5 16.8221 5 17.5455V17.6818C5 17.6818 5 23 12.7273 23C20.4545 23 20.4545 17.6818 20.4545 17.6818V17.5455C20.4545 16.8221 20.1672 16.1284 19.6557 15.617C19.1443 15.1055 18.4506 14.8182 17.7273 14.8182H7.72727Z" fill="white"/>
</svg>
