<svg width="15" height="15" viewBox="0 0 15 15" fill="none" xmlns="http://www.w3.org/2000/svg">
<g clip-path="url(#clip0_174_527)">
<path d="M14.8804 6.57437L9.42563 1.11964C9.36841 1.0625 9.29555 1.0236 9.21624 1.00784C9.13693 0.992086 9.05473 1.00019 8.98002 1.03112C8.90531 1.06206 8.84144 1.11444 8.79648 1.18165C8.75153 1.24886 8.72749 1.32788 8.72742 1.40874V4.28611C5.01275 4.53089 0.518738 8.03624 0.00462981 12.5132C-0.0120669 12.6558 0.0166496 12.8 0.0866885 12.9252C0.156727 13.0505 0.264516 13.1505 0.3947 13.211C0.524884 13.2714 0.670823 13.2892 0.811727 13.2619C0.952631 13.2345 1.08131 13.1634 1.17944 13.0587C1.94719 12.2398 4.70456 9.63175 8.72742 9.46333V12.3182C8.72749 12.3991 8.75153 12.4781 8.79648 12.5453C8.84144 12.6125 8.90531 12.6649 8.98002 12.6958C9.05473 12.7268 9.13693 12.7349 9.21624 12.7191C9.29555 12.7033 9.36841 12.6644 9.42563 12.6073L14.8804 7.15257C14.957 7.07587 15 6.97189 15 6.86347C15 6.75506 14.957 6.65108 14.8804 6.57437ZM9.54563 11.3309V9.04537C9.54563 8.93686 9.50253 8.83281 9.42581 8.75608C9.34909 8.67936 9.24503 8.63626 9.13653 8.63626C7.24578 8.63626 5.40276 9.1306 3.65998 10.1056C2.64419 10.6762 1.70851 11.379 0.877386 12.1955C1.19785 10.3845 2.25198 8.6499 3.87749 7.26781C5.48663 5.90481 7.4517 5.09069 9.13653 5.09069C9.24503 5.09069 9.34909 5.04758 9.42581 4.97086C9.50253 4.89414 9.54563 4.79008 9.54563 4.68158V2.39673L14.0124 6.86347L9.54563 11.3309Z" fill="white"/>
</g>
<defs>
<clipPath id="clip0_174_527">
<rect width="15" height="15" fill="white"/>
</clipPath>
</defs>
</svg>
