<svg width="60" height="66" viewBox="0 0 60 66" fill="none" xmlns="http://www.w3.org/2000/svg">
<path d="M54.9038 47.7612C54.3848 47.5218 53.7953 47.4837 53.2498 47.6542C52.7042 47.8247 52.2414 48.1916 51.9509 48.6839L51.8356 48.8916C51.5503 49.386 51.4584 49.9686 51.5777 50.5267C51.697 51.0849 52.0191 51.5791 52.4815 51.9137C52.743 52.1021 53.041 52.2336 53.3564 52.2999C53.6718 52.3661 53.9975 52.3655 54.3127 52.2981C54.6278 52.2307 54.9254 52.0981 55.1861 51.9087C55.4469 51.7193 55.6651 51.4774 55.8266 51.1985L55.9419 50.9909C56.099 50.7135 56.1968 50.4066 56.2292 50.0895C56.2617 49.7724 56.2281 49.452 56.1306 49.1485C56.033 48.8451 55.8737 48.5651 55.6625 48.3263C55.4514 48.0876 55.193 47.8951 54.9038 47.7612ZM56.5417 43.2165C56.8513 43.3017 57.1753 43.3213 57.4929 43.2741C57.8105 43.2269 58.1148 43.1139 58.3862 42.9423C58.6576 42.7708 58.8903 42.5445 59.0692 42.2778C59.2482 42.0112 59.3695 41.7102 59.4254 41.394V41.1864C59.481 40.8709 59.4703 40.5473 59.394 40.2362C59.3177 39.925 59.1774 39.6332 58.982 39.3793C58.7867 39.1254 58.5407 38.9149 58.2595 38.7614C57.9784 38.6078 57.6684 38.5144 57.3492 38.4872C56.7759 38.438 56.205 38.6047 55.7483 38.9546C55.2916 39.3046 54.9822 39.8126 54.8807 40.3789V40.6096C54.7859 41.1727 54.9033 41.7509 55.2101 42.2324C55.5169 42.7139 55.9914 43.0645 56.5417 43.2165ZM54.8807 31.5434V31.774C54.9819 32.3361 55.2879 32.8407 55.7397 33.1901C56.1914 33.5396 56.7566 33.709 57.3261 33.6657C57.6473 33.6416 57.9599 33.5505 58.2438 33.3982C58.5276 33.2459 58.7764 33.0359 58.9742 32.7816C59.1719 32.5274 59.3143 32.2345 59.392 31.9219C59.4697 31.6093 59.4811 31.2839 59.4254 30.9666V30.7359C59.3695 30.4197 59.2482 30.1187 59.0692 29.8521C58.8903 29.5855 58.6576 29.3591 58.3862 29.1876C58.1148 29.0161 57.8105 28.9031 57.4929 28.8559C57.1753 28.8086 56.8513 28.8283 56.5417 28.9134C55.9867 29.0656 55.5087 29.4198 55.2013 29.9064C54.894 30.3929 54.7797 30.9768 54.8807 31.5434ZM41.5236 61.1184C41.2811 60.5986 40.8538 60.1878 40.325 59.966C39.7961 59.7442 39.2036 59.7274 38.6629 59.9187H38.4553C37.9097 60.1134 37.4574 60.5063 37.1881 61.0191C36.9189 61.532 36.8524 62.1274 37.0019 62.6871C37.0849 62.9965 37.2313 63.2852 37.432 63.5349C37.6326 63.7845 37.8831 63.9897 38.1674 64.1373C38.4517 64.2848 38.7636 64.3716 39.0832 64.392C39.4029 64.4124 39.7233 64.366 40.024 64.2558H40.2317C40.5307 64.1453 40.8036 63.974 41.0332 63.7527C41.2627 63.5315 41.4439 63.265 41.5653 62.9702C41.6866 62.6754 41.7456 62.3587 41.7384 62.0399C41.7313 61.7212 41.6581 61.4074 41.5236 61.1184ZM38.4092 12.2343H38.6168C39.1603 12.4323 39.7584 12.4188 40.2925 12.1966C40.8266 11.9745 41.2578 11.5597 41.5005 11.0346C41.6345 10.7441 41.7066 10.4289 41.7123 10.1091C41.7179 9.7892 41.657 9.47166 41.5333 9.1766C41.4096 8.88155 41.226 8.61544 40.9939 8.39519C40.7619 8.17493 40.4866 8.00535 40.1855 7.8972H39.9779C39.6756 7.78729 39.3537 7.74181 39.0328 7.76367C38.7119 7.78554 38.3991 7.87427 38.1145 8.02416C37.8299 8.17406 37.5798 8.38181 37.3803 8.63407C37.1807 8.88634 37.0362 9.17754 36.9558 9.48899C36.8127 10.0454 36.8824 10.6351 37.1512 11.1429C37.42 11.6506 37.8686 12.0398 38.4092 12.2343ZM51.9279 23.4691C52.2188 23.967 52.6857 24.3379 53.2365 24.5087C53.7874 24.6795 54.3822 24.6378 54.9038 24.3918C55.1942 24.256 55.4532 24.0611 55.6641 23.8197C55.875 23.5782 56.0333 23.2954 56.1288 22.9893C56.2243 22.6833 56.2549 22.3606 56.2188 22.0421C56.1827 21.7235 56.0805 21.4159 55.9189 21.139L55.8035 20.9545C55.6418 20.679 55.4246 20.4401 55.1657 20.253C54.9068 20.0658 54.6119 19.9344 54.2996 19.8672C53.9873 19.8 53.6645 19.7983 53.3515 19.8624C53.0385 19.9265 52.7423 20.0548 52.4815 20.2393C52.0152 20.5705 51.6886 21.0631 51.565 21.6215C51.4413 22.18 51.5296 22.7644 51.8125 23.2614L51.9279 23.4691ZM46.2528 16.6866C46.6951 17.0573 47.2603 17.2487 47.8369 17.2231C48.4134 17.1975 48.9594 16.9567 49.3672 16.5482C49.5952 16.321 49.7731 16.0485 49.8895 15.7483C50.0059 15.4481 50.0582 15.1269 50.0429 14.8053C50.0277 14.4837 49.9454 14.1689 49.8012 13.881C49.657 13.5932 49.4541 13.3387 49.2057 13.134L49.0442 12.9955C48.7981 12.7915 48.5123 12.6409 48.205 12.5532C47.8976 12.4654 47.5754 12.4425 47.2587 12.4859C46.942 12.5293 46.6378 12.638 46.3654 12.8052C46.0929 12.9723 45.8582 13.1943 45.676 13.4569C45.3458 13.9307 45.2052 14.511 45.2821 15.0834C45.359 15.6557 45.6477 16.1784 46.0913 16.5482L46.2528 16.6866ZM49.3902 55.6048C48.9825 55.1963 48.4365 54.9555 47.86 54.9299C47.2834 54.9043 46.7182 55.0957 46.2759 55.4663L46.1144 55.6278C45.677 55.9967 45.3923 56.5149 45.3156 57.0819C45.2388 57.6489 45.3755 58.2242 45.6991 58.6961C45.8813 58.9587 46.116 59.1807 46.3884 59.3478C46.6609 59.515 46.9651 59.6237 47.2818 59.6671C47.5984 59.7105 47.9207 59.6876 48.228 59.5998C48.5354 59.5121 48.8212 59.3615 49.0672 59.1574L49.2518 59.019C49.4987 58.8126 49.6997 58.5568 49.8419 58.2681C49.984 57.9794 50.0642 57.6641 50.0772 57.3426C50.0902 57.021 50.0359 56.7003 49.9176 56.401C49.7992 56.1017 49.6196 55.8305 49.3902 55.6048ZM27.4051 65.986C27.7286 66.0218 28.0561 65.9887 28.366 65.889C28.6759 65.7892 28.9611 65.6249 29.203 65.407C29.4449 65.1891 29.6379 64.9225 29.7693 64.6247C29.9008 64.3269 29.9677 64.0046 29.9658 63.6791C29.9686 63.1052 29.7575 62.5508 29.3736 62.1242C28.9897 61.6977 28.4605 61.4295 27.8895 61.3721C21.6933 60.8411 15.9077 58.0533 11.6314 53.5379C7.35508 49.0226 4.88572 43.0941 4.69219 36.8781C4.49865 30.6622 6.59441 24.5916 10.5816 19.819C14.5687 15.0463 20.1696 11.9039 26.3208 10.9885L23.3448 15.0949C22.9922 15.5912 22.8502 16.2068 22.9495 16.8075C23.0489 17.4082 23.3818 17.9452 23.8754 18.3015C24.3718 18.6541 24.9874 18.7962 25.5881 18.6968C26.1887 18.5974 26.7258 18.2646 27.0821 17.7709L31.696 11.4038C32.0691 10.8775 32.3328 10.2816 32.4715 9.65159C32.6102 9.02152 32.6211 8.37004 32.5034 7.73571C32.376 7.10387 32.1249 6.50345 31.7646 5.96897C31.4043 5.4345 30.942 4.97651 30.4041 4.62134L23.7832 0.376568C23.2662 0.0400564 22.6367 -0.0772933 22.0331 0.0503342C21.4296 0.177962 20.9015 0.540112 20.565 1.05712C20.2285 1.57412 20.1111 2.20363 20.2387 2.80715C20.3664 3.41068 20.7285 3.93879 21.2455 4.2753L24.729 6.58224C17.5681 7.85828 11.1151 11.6933 6.57137 17.3732C2.02767 23.0531 -0.296931 30.1907 0.0304056 37.457C0.357742 44.7233 3.31471 51.623 8.3507 56.8714C13.3867 62.1197 20.1585 65.359 27.4051 65.986Z" fill="black"/>
</svg>
