<svg width="60" height="60" viewBox="0 0 60 60" fill="none" xmlns="http://www.w3.org/2000/svg">
<g clip-path="url(#clip0_75_8)">
<path d="M59.4851 11.8118L48.1882 0.514922C47.8586 0.18526 47.4115 3.74021e-05 46.9453 0L6.46477 0C2.90016 0 0 2.90016 0 6.46488V53.5351C0 57.0998 2.90016 60 6.46477 60H53.535C57.0998 60 60 57.0998 60 53.5351V13.0547C60 12.5885 59.8147 12.1414 59.4851 11.8118ZM41.4219 3.51562V17.7616C41.4219 19.3879 40.0989 20.7109 38.4727 20.7109H17.7616C16.1354 20.7109 14.8124 19.3879 14.8124 17.7616V3.51562H41.4219ZM14.8124 56.4844V38.4727C14.8124 36.8466 16.1354 35.5235 17.7616 35.5235H42.2381C43.8643 35.5235 45.1874 36.8466 45.1874 38.4727V56.4844H14.8124ZM56.4844 53.5351C56.4844 55.1613 55.1613 56.4844 53.5351 56.4844H48.7031V38.4727C48.7031 34.908 45.803 32.0079 42.2382 32.0079H17.7616C14.1969 32.0079 11.2968 34.908 11.2968 38.4727V56.4844H6.46477C4.83867 56.4844 3.51562 55.1613 3.51562 53.5351V6.46488C3.51562 4.83867 4.83867 3.51562 6.46477 3.51562H11.2968V17.7616C11.2968 21.3264 14.1969 24.2265 17.7616 24.2265H38.4727C42.0374 24.2265 44.9375 21.3264 44.9375 17.7616V3.51562H46.2171L56.4844 13.7829V53.5351Z" fill="black"/>
<path d="M35.6484 16.6953C36.6192 16.6953 37.4062 15.9083 37.4062 14.9375V9.28909C37.4062 8.31831 36.6192 7.53128 35.6484 7.53128C34.6777 7.53128 33.8906 8.31831 33.8906 9.28909V14.9375C33.8906 15.9083 34.6777 16.6953 35.6484 16.6953Z" fill="black"/>
</g>
<defs>
<clipPath id="clip0_75_8">
<rect width="60" height="60" fill="white"/>
</clipPath>
</defs>
</svg>
