<svg width="21" height="21" viewBox="0 0 21 21" fill="none" xmlns="http://www.w3.org/2000/svg">
<path d="M18.0939 20.1871L11.7212 13.8144C11.1522 14.2696 10.4979 14.6299 9.75818 14.8954C9.01849 15.161 8.23139 15.2937 7.39687 15.2937C5.32954 15.2937 3.58009 14.5776 2.14851 13.1452C0.716927 11.7129 0.000758653 9.96344 0 7.89687C0 5.82954 0.716169 4.08009 2.14851 2.64851C3.58084 1.21693 5.3303 0.500759 7.39687 0.5C9.4642 0.5 11.2137 1.21617 12.6452 2.64851C14.0768 4.08084 14.793 5.8303 14.7937 7.89687C14.7937 8.73139 14.661 9.51849 14.3954 10.2582C14.1299 10.9979 13.7696 11.6522 13.3144 12.2212L19.7155 18.6223C19.9241 18.831 20.0285 19.087 20.0285 19.3905C20.0285 19.6939 19.9147 19.9595 19.6871 20.1871C19.4784 20.3957 19.2129 20.5 18.8905 20.5C18.568 20.5 18.3025 20.3957 18.0939 20.1871ZM7.39687 13.0178C8.81935 13.0178 10.0286 12.5197 11.0248 11.5236C12.0209 10.5275 12.5185 9.31859 12.5178 7.89687C12.5178 6.47439 12.0197 5.2651 11.0236 4.26899C10.0275 3.27288 8.81859 2.7752 7.39687 2.77596C5.9744 2.77596 4.7651 3.27402 3.76899 4.27013C2.77288 5.26624 2.2752 6.47515 2.27596 7.89687C2.27596 9.31934 2.77402 10.5286 3.77013 11.5247C4.76624 12.5209 5.97515 13.0185 7.39687 13.0178Z" fill="white"/>
</svg>
