<svg width="30" height="30" viewBox="0 0 30 30" fill="none" xmlns="http://www.w3.org/2000/svg">
<path d="M15 2.8125C12.5895 2.8125 10.2332 3.52728 8.22899 4.86646C6.22477 6.20564 4.66267 8.10907 3.74022 10.336C2.81778 12.563 2.57643 15.0135 3.04668 17.3777C3.51694 19.7418 4.67769 21.9134 6.38214 23.6179C8.08659 25.3223 10.2582 26.4831 12.6223 26.9533C14.9865 27.4236 17.437 27.1822 19.664 26.2598C21.8909 25.3373 23.7944 23.7752 25.1335 21.771C26.4727 19.7668 27.1875 17.4105 27.1875 15C27.1841 11.7687 25.899 8.67076 23.6141 6.3859C21.3292 4.10104 18.2313 2.81591 15 2.8125ZM15 25.3125C12.9604 25.3125 10.9666 24.7077 9.27069 23.5745C7.57481 22.4414 6.25303 20.8308 5.4725 18.9464C4.69197 17.0621 4.48775 14.9886 4.88566 12.9881C5.28357 10.9877 6.26574 9.15019 7.70797 7.70796C9.1502 6.26573 10.9877 5.28356 12.9881 4.88565C14.9886 4.48774 17.0621 4.69196 18.9464 5.47249C20.8308 6.25302 22.4414 7.5748 23.5745 9.27068C24.7077 10.9666 25.3125 12.9604 25.3125 15C25.3094 17.7341 24.2219 20.3553 22.2886 22.2886C20.3553 24.2219 17.7341 25.3094 15 25.3125ZM9.37501 12.6562C9.37501 12.3781 9.45748 12.1062 9.612 11.875C9.76652 11.6437 9.98615 11.4635 10.2431 11.357C10.5001 11.2506 10.7828 11.2228 11.0556 11.277C11.3284 11.3313 11.579 11.4652 11.7756 11.6619C11.9723 11.8585 12.1062 12.1091 12.1605 12.3819C12.2147 12.6547 12.1869 12.9374 12.0805 13.1944C11.974 13.4514 11.7938 13.671 11.5625 13.8255C11.3313 13.98 11.0594 14.0625 10.7813 14.0625C10.4083 14.0625 10.0506 13.9143 9.78689 13.6506C9.52316 13.3869 9.37501 13.0292 9.37501 12.6562ZM20.625 12.6562C20.625 12.9344 20.5425 13.2063 20.388 13.4375C20.2335 13.6688 20.0139 13.849 19.7569 13.9555C19.4999 14.0619 19.2172 14.0897 18.9444 14.0355C18.6716 13.9812 18.4211 13.8473 18.2244 13.6506C18.0277 13.454 17.8938 13.2034 17.8395 12.9306C17.7853 12.6578 17.8131 12.3751 17.9196 12.1181C18.026 11.8611 18.2062 11.6415 18.4375 11.487C18.6687 11.3325 18.9406 11.25 19.2188 11.25C19.5917 11.25 19.9494 11.3982 20.2131 11.6619C20.4768 11.9256 20.625 12.2833 20.625 12.6562ZM20.4996 18.2812C19.2938 20.366 17.2887 21.5625 15 21.5625C12.7113 21.5625 10.7074 20.3672 9.50157 18.2812C9.43374 18.1745 9.38819 18.0552 9.36767 17.9305C9.34715 17.8057 9.35208 17.6781 9.38216 17.5553C9.41224 17.4325 9.46685 17.317 9.54271 17.2158C9.61857 17.1147 9.71411 17.0299 9.82357 16.9666C9.93304 16.9034 10.0542 16.8629 10.1797 16.8476C10.3052 16.8324 10.4325 16.8427 10.5539 16.8779C10.6754 16.9132 10.7884 16.9726 10.8863 17.0526C10.9842 17.1327 11.0648 17.2317 11.1234 17.3438C11.9988 18.8566 13.3746 19.6875 15 19.6875C16.6254 19.6875 18.0012 18.8555 18.8754 17.3438C18.9997 17.1284 19.2045 16.9712 19.4447 16.9068C19.6849 16.8424 19.9409 16.8761 20.1563 17.0004C20.3716 17.1247 20.5288 17.3295 20.5932 17.5697C20.6576 17.8099 20.6239 18.0659 20.4996 18.2812Z" fill="white"/>
</svg>
