<svg width="21" height="20" viewBox="0 0 21 20" fill="none" xmlns="http://www.w3.org/2000/svg">
<path fill-rule="evenodd" clip-rule="evenodd" d="M2.40675 0.637742C2.62548 0.419343 2.88812 0.249922 3.17728 0.140707C3.46644 0.0314914 3.77551 -0.0150244 4.084 0.00424171C4.3925 0.0235079 4.69337 0.108116 4.9667 0.252459C5.24002 0.396803 5.47955 0.597585 5.6694 0.841502L7.91325 3.72413C8.32452 4.25291 8.46953 4.94169 8.30702 5.59172L7.62324 8.32934C7.58789 8.47114 7.5898 8.61966 7.62878 8.7605C7.66777 8.90134 7.74251 9.0297 7.84575 9.13313L10.9171 12.2045C11.0207 12.308 11.1493 12.3828 11.2903 12.4218C11.4314 12.4608 11.5802 12.4626 11.7222 12.427L14.4586 11.7433C14.7793 11.663 15.1142 11.6568 15.4377 11.725C15.7612 11.7933 16.065 11.9341 16.3261 12.137L19.2088 14.3796C20.2451 15.1859 20.3401 16.7172 19.4125 17.6435L18.12 18.9361C17.1949 19.8611 15.8124 20.2674 14.5236 19.8136C11.2249 18.653 8.22986 16.7645 5.76065 14.2884C3.28465 11.8195 1.39622 8.82494 0.235402 5.52672C-0.217119 4.23916 0.18915 2.85534 1.11419 1.9303L2.40675 0.637742Z" fill="white"/>
</svg>
