<svg width="15" height="10" viewBox="0 0 15 10" fill="none" xmlns="http://www.w3.org/2000/svg">
<path fill-rule="evenodd" clip-rule="evenodd" d="M0 2C0 1.46957 0.197544 0.960859 0.549175 0.585786C0.900806 0.210714 1.37772 1.38512e-08 1.875 1.38512e-08H8.90625C9.36102 -5.7048e-05 9.80032 0.176193 10.1423 0.495928C10.4843 0.815663 10.7057 1.25709 10.7653 1.738L13.6809 0.356C13.8237 0.288172 13.98 0.259464 14.1358 0.272485C14.2915 0.285507 14.4418 0.339846 14.5728 0.430562C14.7039 0.521279 14.8116 0.645496 14.8862 0.791924C14.9608 0.938351 14.9999 1.10235 15 1.269V8.731C14.9999 8.89752 14.9607 9.06138 14.8862 9.20768C14.8116 9.35399 14.704 9.47813 14.5731 9.56882C14.4421 9.65951 14.292 9.71388 14.1364 9.72701C13.9808 9.74014 13.8245 9.71161 13.6819 9.644L10.7653 8.262C10.7057 8.74291 10.4843 9.18434 10.1423 9.50407C9.80032 9.82381 9.36102 10.0001 8.90625 10H1.875C1.37772 10 0.900806 9.78929 0.549175 9.41421C0.197544 9.03914 0 8.53043 0 8V2ZM10.7812 7.175L14.0625 8.731V1.269L10.7812 2.825V7.175ZM1.875 1C1.62636 1 1.3879 1.10536 1.21209 1.29289C1.03627 1.48043 0.9375 1.73478 0.9375 2V8C0.9375 8.26522 1.03627 8.51957 1.21209 8.70711C1.3879 8.89464 1.62636 9 1.875 9H8.90625C9.15489 9 9.39335 8.89464 9.56916 8.70711C9.74498 8.51957 9.84375 8.26522 9.84375 8V2C9.84375 1.73478 9.74498 1.48043 9.56916 1.29289C9.39335 1.10536 9.15489 1 8.90625 1H1.875Z" fill="white"/>
</svg>
